<svg width="50" height="50" viewBox="0 0 50 50" fill="none" xmlns="http://www.w3.org/2000/svg">
<path id="check" fill-rule="evenodd" clip-rule="evenodd" d="M25 50C38.8071 50 50 38.8071 50 25C50 11.1929 38.8071 0 25 0C11.1929 0 0 11.1929 0 25C0 38.8071 11.1929 50 25 50ZM35.9381 20.0792C36.8102 19.0088 36.6496 17.4341 35.5792 16.5619C34.5088 15.6898 32.9341 15.8504 32.0619 16.9208L22.6707 28.4464L18.1149 24.5915C17.0608 23.6997 15.4834 23.8311 14.5915 24.8851C13.6997 25.9392 13.8311 27.5166 14.8851 28.4085L21.3851 33.9085C21.8974 34.3419 22.5625 34.5513 23.2307 34.4893C23.8989 34.4274 24.5142 34.0994 24.9381 33.5792L35.9381 20.0792Z" fill="#389094"/>
</svg>
