<svg width="43" height="43" viewBox="0 0 43 43" fill="none" xmlns="http://www.w3.org/2000/svg">
<g id="file">
<path fill-rule="evenodd" clip-rule="evenodd" d="M13 10.5H23V19H30.5V33H13V10.5ZM14.5 13H16.5V15H14.5V13ZM18.5 13H20.5V15H18.5V13ZM16.5 17H14.5V19H16.5V17ZM18.5 17H20.5V19H18.5V17ZM16.5 21H14.5V23H16.5V21ZM18.5 21H20.5V23H18.5V21ZM16.5 25H14.5V27H16.5V25ZM18.5 25H20.5V27H18.5V25ZM16.5 29H14.5V31H16.5V29ZM18.5 29H20.5V31H18.5V29ZM25 21H23V23H25V21ZM27 21H29V23H27V21ZM25 25H23V27H25V25ZM27 25H29V27H27V25ZM25 29H23V31H25V29ZM27 29H29V31H27V29Z" fill="#389094"/>
<path fill-rule="evenodd" clip-rule="evenodd" d="M43 0H0V43H43V0ZM10.5 35V9H25.5L33 16.5V35H10.5Z" fill="#389094"/>
</g>
</svg>
