<svg width="43" height="43" viewBox="0 0 43 43" fill="none" xmlns="http://www.w3.org/2000/svg">
<g id="Search">
<path fill-rule="evenodd" clip-rule="evenodd" d="M19 29C23.4183 29 27 25.4183 27 21C27 16.5817 23.4183 13 19 13C14.5817 13 11 16.5817 11 21C11 25.4183 14.5817 29 19 29ZM17 19H21V23H17V19Z" fill="#389094"/>
<path fill-rule="evenodd" clip-rule="evenodd" d="M43 0H0V43H43V0ZM7 21H5V23H7V21ZM31 21H33V23H31V21ZM38 21H36V23H38V21ZM19 32C25.0751 32 30 27.0751 30 21C30 14.9249 25.0751 10 19 10C12.9249 10 8 14.9249 8 21C8 23.4436 8.79675 25.701 10.1447 27.5268L4.61084 33.0607L7.43921 35.8891L13.0652 30.2632C14.7773 31.3625 16.8142 32 19 32Z" fill="#389094"/>
</g>
</svg>
