<svg width="1244" height="50" viewBox="0 0 1244 50" fill="none" xmlns="http://www.w3.org/2000/svg">
<g id="arduino interface buttons">
<rect width="1244" height="50" fill="#1B6369"/>
<path id="check" fill-rule="evenodd" clip-rule="evenodd" d="M25 50C38.8071 50 50 38.8071 50 25C50 11.1929 38.8071 0 25 0C11.1929 0 0 11.1929 0 25C0 38.8071 11.1929 50 25 50ZM35.9381 20.0792C36.8102 19.0088 36.6496 17.4341 35.5792 16.5619C34.5088 15.6898 32.9341 15.8504 32.0619 16.9208L22.6707 28.4464L18.1149 24.5915C17.0608 23.6997 15.4834 23.8311 14.5915 24.8851C13.6997 25.9392 13.8311 27.5166 14.8851 28.4085L21.3851 33.9085C21.8974 34.3419 22.5625 34.5513 23.2307 34.4893C23.8989 34.4274 24.5142 34.0994 24.9381 33.5792L35.9381 20.0792Z" fill="#4DB7BB"/>
<path id="run" fill-rule="evenodd" clip-rule="evenodd" d="M81 50C94.8071 50 106 38.8071 106 25C106 11.1929 94.8071 0 81 0C67.1929 0 56 11.1929 56 25C56 38.8071 67.1929 50 81 50ZM73 23.5H80V16L90.5 26L80 36.5V28.5H73V23.5Z" fill="#4DB7BB"/>
<g id="file">
<path fill-rule="evenodd" clip-rule="evenodd" d="M137 13.5H147V22H154.5V36H137V13.5ZM138.5 16H140.5V18H138.5V16ZM142.5 16H144.5V18H142.5V16ZM140.5 20H138.5V22H140.5V20ZM142.5 20H144.5V22H142.5V20ZM140.5 24H138.5V26H140.5V24ZM142.5 24H144.5V26H142.5V24ZM140.5 28H138.5V30H140.5V28ZM142.5 28H144.5V30H142.5V28ZM140.5 32H138.5V34H140.5V32ZM142.5 32H144.5V34H142.5V32ZM149 24H147V26H149V24ZM151 24H153V26H151V24ZM149 28H147V30H149V28ZM151 28H153V30H151V28ZM149 32H147V34H149V32ZM151 32H153V34H151V32Z" fill="#4DB7BB"/>
<path fill-rule="evenodd" clip-rule="evenodd" d="M167 3H124V46H167V3ZM134.5 38V12H149.5L157 19.5V38H134.5Z" fill="#4DB7BB"/>
</g>
<path id="upload" fill-rule="evenodd" clip-rule="evenodd" d="M223 3H180V46H223V3ZM213 38V36H211V38H213ZM191 36H193V38H191V36ZM197 36H195V38H197V36ZM199 36H201V38H199V36ZM205 36H203V38H205V36ZM207 36H209V38H207V36ZM212 21.6117L201.5 11L191 21.6117H198.337V30H204.663V21.6117H212Z" fill="#4DB7BB"/>
<path id="download" fill-rule="evenodd" clip-rule="evenodd" d="M277 3H234V46H277V3ZM267 38V36H265V38H267ZM245 36H247V38H245V36ZM251 36H249V38H251V36ZM253 36H255V38H253V36ZM259 36H257V38H259V36ZM261 36H263V38H261V36ZM258.663 19.3883H266L255.5 30L245 19.3883H252.337V11H258.663V19.3883Z" fill="#4DB7BB"/>
<g id="Search">
<path fill-rule="evenodd" clip-rule="evenodd" d="M1219 32C1223.42 32 1227 28.4183 1227 24C1227 19.5817 1223.42 16 1219 16C1214.58 16 1211 19.5817 1211 24C1211 28.4183 1214.58 32 1219 32ZM1217 22H1221V26H1217V22Z" fill="#4DB7BB"/>
<path fill-rule="evenodd" clip-rule="evenodd" d="M1243 3H1200V46H1243V3ZM1207 24H1205V26H1207V24ZM1231 24H1233V26H1231V24ZM1238 24H1236V26H1238V24ZM1219 35C1225.08 35 1230 30.0751 1230 24C1230 17.9249 1225.08 13 1219 13C1212.92 13 1208 17.9249 1208 24C1208 26.4436 1208.8 28.701 1210.14 30.5268L1204.61 36.0607L1207.44 38.8891L1213.07 33.2632C1214.78 34.3625 1216.81 35 1219 35Z" fill="#4DB7BB"/>
</g>
</g>
</svg>
