<svg width="100" height="84" viewBox="0 0 100 84" fill="none" xmlns="http://www.w3.org/2000/svg">
<g id="ECE RCF mini logo">
<g id="r-arrow">
<path d="M72 23.595L85.9628 13V34.19L72 23.595Z" fill="black"/>
<path d="M81.0426 20.4035H97V26.7865H81.0426V20.4035Z" fill="black"/>
</g>
<g id="l-arrow">
<path d="M28 60.5949L14.0372 71.1899L14.0372 50L28 60.5949Z" fill="black"/>
<path d="M18.9574 63.7864H3V57.4035H18.9574V63.7864Z" fill="black"/>
</g>
<path id="ECE" d="M19.375 23.8555H7.05078V33.9336H21.3672V37H3.30078V8.5625H21.1719V11.6484H7.05078V20.7891H19.375V23.8555ZM46.9531 27.9766C46.6016 30.9844 45.4883 33.3086 43.6133 34.9492C41.7513 36.5768 39.2708 37.3906 36.1719 37.3906C32.8125 37.3906 30.1172 36.1862 28.0859 33.7773C26.0677 31.3685 25.0586 28.1458 25.0586 24.1094V21.375C25.0586 18.7318 25.5273 16.4076 26.4648 14.4023C27.4154 12.3971 28.7565 10.8607 30.4883 9.79297C32.2201 8.71224 34.2253 8.17188 36.5039 8.17188C39.5247 8.17188 41.9466 9.01823 43.7695 10.7109C45.5924 12.3906 46.6536 14.7214 46.9531 17.7031H43.1836C42.8581 15.4375 42.1484 13.7969 41.0547 12.7812C39.974 11.7656 38.457 11.2578 36.5039 11.2578C34.1081 11.2578 32.2266 12.1432 30.8594 13.9141C29.5052 15.6849 28.8281 18.2044 28.8281 21.4727V24.2266C28.8281 27.3125 29.4727 29.7669 30.7617 31.5898C32.0508 33.4128 33.8542 34.3242 36.1719 34.3242C38.2552 34.3242 39.8503 33.8555 40.957 32.918C42.0768 31.9674 42.819 30.3203 43.1836 27.9766H46.9531ZM68.1641 23.8555H55.8398V33.9336H70.1562V37H52.0898V8.5625H69.9609V11.6484H55.8398V20.7891H68.1641V23.8555Z" fill="black"/>
<path id="RCF" d="M40.7305 62.4961H34.0508V74H30.2812V45.5625H39.6953C42.8984 45.5625 45.3594 46.2917 47.0781 47.75C48.8099 49.2083 49.6758 51.3307 49.6758 54.1172C49.6758 55.888 49.194 57.431 48.2305 58.7461C47.2799 60.0612 45.9518 61.0443 44.2461 61.6953L50.9258 73.7656V74H46.9023L40.7305 62.4961ZM34.0508 59.4297H39.8125C41.6745 59.4297 43.1523 58.9479 44.2461 57.9844C45.3529 57.0208 45.9062 55.7318 45.9062 54.1172C45.9062 52.3594 45.3789 51.0117 44.3242 50.0742C43.2826 49.1367 41.7721 48.6615 39.793 48.6484H34.0508V59.4297ZM75.8672 64.9766C75.5156 67.9844 74.4023 70.3086 72.5273 71.9492C70.6654 73.5768 68.1849 74.3906 65.0859 74.3906C61.7266 74.3906 59.0312 73.1862 57 70.7773C54.9818 68.3685 53.9727 65.1458 53.9727 61.1094V58.375C53.9727 55.7318 54.4414 53.4076 55.3789 51.4023C56.3294 49.3971 57.6706 47.8607 59.4023 46.793C61.1341 45.7122 63.1393 45.1719 65.418 45.1719C68.4388 45.1719 70.8607 46.0182 72.6836 47.7109C74.5065 49.3906 75.5677 51.7214 75.8672 54.7031H72.0977C71.7721 52.4375 71.0625 50.7969 69.9688 49.7812C68.888 48.7656 67.3711 48.2578 65.418 48.2578C63.0221 48.2578 61.1406 49.1432 59.7734 50.9141C58.4193 52.6849 57.7422 55.2044 57.7422 58.4727V61.2266C57.7422 64.3125 58.3867 66.7669 59.6758 68.5898C60.9648 70.4128 62.7682 71.3242 65.0859 71.3242C67.1693 71.3242 68.7643 70.8555 69.8711 69.918C70.9909 68.9674 71.7331 67.3203 72.0977 64.9766H75.8672ZM96.6875 61.4414H84.7539V74H81.0039V45.5625H98.6211V48.6484H84.7539V58.375H96.6875V61.4414Z" fill="black"/>
</g>
</svg>
