<svg width="100%" height="100%" viewBox="0 0 25 26" fill="none" xmlns="http://www.w3.org/2000/svg">
<path d="M8.59375 11.2848H16.4062C16.8379 11.2848 17.1875 10.9352 17.1875 10.5036V9.72232C17.1875 9.29068 16.8379 8.94107 16.4062 8.94107H8.59375C8.16211 8.94107 7.8125 9.29068 7.8125 9.72232V10.5036C7.8125 10.9352 8.16211 11.2848 8.59375 11.2848ZM7.8125 15.1911C7.8125 15.6227 8.16211 15.9723 8.59375 15.9723H16.4062C16.8379 15.9723 17.1875 15.6227 17.1875 15.1911V14.4098C17.1875 13.9782 16.8379 13.6286 16.4062 13.6286H8.59375C8.16211 13.6286 7.8125 13.9782 7.8125 14.4098V15.1911ZM12.5 21.1056C11.6982 21.1056 10.8965 20.8585 10.2119 20.3639L0 12.987V23.3942C0 24.6886 1.04932 25.7379 2.34375 25.7379H22.6562C23.9507 25.7379 25 24.6886 25 23.3942V12.987L14.7881 20.3639C14.1035 20.8581 13.3018 21.1056 12.5 21.1056ZM24.1021 8.69449C23.6699 8.35562 23.2603 8.03677 22.6562 7.58072V5.42544C22.6562 4.13101 21.6069 3.08169 20.3125 3.08169H16.5259C16.3774 2.97427 16.2393 2.87369 16.0845 2.76138C15.2637 2.16226 13.6328 0.720854 12.5 0.737944C11.3672 0.720854 9.73682 2.16226 8.91553 2.76138C8.76074 2.87369 8.62256 2.97427 8.47412 3.08169H4.6875C3.39307 3.08169 2.34375 4.13101 2.34375 5.42544V7.58072C1.73975 8.03628 1.33008 8.35562 0.897949 8.69449C0.618241 8.91369 0.392048 9.19364 0.236481 9.51314C0.0809144 9.83265 4.81351e-05 10.1834 0 10.5387L0 11.0587L4.6875 14.445V5.42544H20.3125V14.445L25 11.0587V10.5387C25 9.819 24.6689 9.13882 24.1021 8.69449Z" fill="white"/>
</svg>
