<svg width="100%" height="100%" viewBox="0 0 773 615" fill="none" xmlns="http://www.w3.org/2000/svg">
<path d="M279 104.039H229V136.667H279V104.039Z" fill="#C9CACC"/>
<path d="M275 102H233V138.81H275V102Z" fill="#343433"/>
<g clip-path="url(#clip0)">
<path d="M410.417 565H0V615H410.417V565Z" fill="#252525"/>
<path d="M33.3333 579.583H12.5V600.417H33.3333V579.583Z" fill="#8D7966"/>
<path d="M85.4166 579.583H64.5833V600.417H85.4166V579.583Z" fill="#8D7966"/>
<path d="M137.5 579.583H116.667V600.417H137.5V579.583Z" fill="#8D7966"/>
<path d="M189.583 579.583H168.75V600.417H189.583V579.583Z" fill="#8D7966"/>
<path d="M241.667 579.583H220.833V600.417H241.667V579.583Z" fill="#8D7966"/>
<path d="M293.75 579.583H272.917V600.417H293.75V579.583Z" fill="#8D7966"/>
<path d="M345.833 579.583H325V600.417H345.833V579.583Z" fill="#8D7966"/>
<path d="M397.917 579.583H377.083V600.417H397.917V579.583Z" fill="#8D7966"/>
</g>
<g clip-path="url(#clip1)">
<path d="M772.25 565H466V615H772.25V565Z" fill="#252525"/>
<path d="M499.333 579.583H478.5V600.417H499.333V579.583Z" fill="#8D7966"/>
<path d="M551.417 579.583H530.583V600.417H551.417V579.583Z" fill="#8D7966"/>
<path d="M603.5 579.583H582.667V600.417H603.5V579.583Z" fill="#8D7966"/>
<path d="M655.583 579.583H634.75V600.417H655.583V579.583Z" fill="#8D7966"/>
<path d="M707.667 579.583H686.833V600.417H707.667V579.583Z" fill="#8D7966"/>
<path d="M759.75 579.583H738.917V600.417H759.75V579.583Z" fill="#8D7966"/>
</g>
<g clip-path="url(#clip2)">
<path fill-rule="evenodd" clip-rule="evenodd" d="M235.914 175.46C232.095 175.46 229 170.656 229 164.73C229 158.804 232.095 154 235.914 154C239.732 154 242.827 158.804 242.827 164.73C242.827 170.656 239.732 175.46 235.914 175.46Z" fill="#C9CACC"/>
<path fill-rule="evenodd" clip-rule="evenodd" d="M272.086 175.46C268.268 175.46 265.173 170.656 265.173 164.73C265.173 158.804 268.268 154 272.086 154C275.905 154 279 158.804 279 164.73C279 170.656 275.905 175.46 272.086 175.46Z" fill="#C9CACC"/>
<path d="M272.584 156.434H235.416V173.137H272.584V156.434Z" fill="#ACAAAE"/>
<path d="M262.186 156.434H245.814V173.027H262.186V156.434Z" fill="#907966"/>
</g>
<path d="M604.115 23V109H637.96V23H604.115Z" fill="#C9CACC"/>
<path d="M602 29.88V102.12H640.183V29.88H602Z" fill="#343433"/>
<rect x="672" width="91" height="47" rx="10" fill="#252525"/>
<rect x="684" y="13" width="22" height="22" fill="#8D7966"/>
<rect x="731" y="13" width="22" height="22" fill="#8D7966"/>
<rect x="672" y="45" width="91" height="47" rx="10" fill="#252525"/>
<rect x="684" y="58" width="22" height="22" fill="#8D7966"/>
<rect x="731" y="58" width="22" height="22" fill="#8D7966"/>
<rect x="672" y="88" width="91" height="47" rx="10" fill="#252525"/>
<rect x="684" y="101" width="22" height="22" fill="#8D7966"/>
<rect x="731" y="101" width="22" height="22" fill="#8D7966"/>
<g clip-path="url(#clip3)">
<path fill-rule="evenodd" clip-rule="evenodd" d="M306.914 461.46C303.095 461.46 300 456.656 300 450.73C300 444.804 303.095 440 306.914 440C310.732 440 313.827 444.804 313.827 450.73C313.827 456.656 310.732 461.46 306.914 461.46Z" fill="#C9CACC"/>
<path fill-rule="evenodd" clip-rule="evenodd" d="M343.086 461.46C339.268 461.46 336.173 456.656 336.173 450.73C336.173 444.804 339.268 440 343.086 440C346.905 440 350 444.804 350 450.73C350 456.656 346.905 461.46 343.086 461.46Z" fill="#C9CACC"/>
<path d="M343.584 442.434H306.416V459.137H343.584V442.434Z" fill="#ACAAAE"/>
<path d="M333.186 442.434H316.814V459.027H333.186V442.434Z" fill="#907966"/>
</g>
<path fill-rule="evenodd" clip-rule="evenodd" d="M665.787 211C674.707 211 681.937 219.064 681.937 229.012V406.708C681.937 416.657 674.707 424.72 665.787 424.72C656.866 424.72 649.636 416.657 649.636 406.708V229.012C649.636 219.064 656.866 211 665.787 211Z" fill="#C9CACC"/>
<path d="M681.937 225.746H649.636V410.161H681.937V225.746Z" fill="#9A999B"/>
<path fill-rule="evenodd" clip-rule="evenodd" d="M623.611 211C632.531 211 639.761 219.064 639.761 229.012V406.708C639.761 416.657 632.531 424.72 623.611 424.72C614.69 424.72 607.46 416.657 607.46 406.708V229.012C607.46 219.064 614.69 211 623.611 211Z" fill="#C9CACC"/>
<path d="M639.761 225.746H607.46V410.161H639.761V225.746Z" fill="#9A999B"/>
<path fill-rule="evenodd" clip-rule="evenodd" d="M581.351 211C590.317 211 597.586 219.106 597.586 229.105V406.615C597.586 416.614 590.317 424.72 581.351 424.72C572.386 424.72 565.117 416.614 565.117 406.615V229.105C565.117 219.106 572.386 211 581.351 211Z" fill="#C9CACC"/>
<path d="M597.586 225.746H565.117V410.161H597.586V225.746Z" fill="#9A999B"/>
<path fill-rule="evenodd" clip-rule="evenodd" d="M539.176 211C548.141 211 555.41 219.106 555.41 229.105V406.615C555.41 416.614 548.141 424.72 539.176 424.72C530.21 424.72 522.941 416.614 522.941 406.615V229.105C522.941 219.106 530.21 211 539.176 211Z" fill="#C9CACC"/>
<path d="M555.41 225.746H522.941V410.161H555.41V225.746Z" fill="#9A999B"/>
<path fill-rule="evenodd" clip-rule="evenodd" d="M497 211C505.966 211 513.234 219.106 513.234 229.105V406.615C513.234 416.614 505.966 424.72 497 424.72C488.034 424.72 480.766 416.614 480.766 406.615V229.105C480.766 219.106 488.034 211 497 211Z" fill="#C9CACC"/>
<path d="M513.234 225.746H480.766V410.161H513.234V225.746Z" fill="#9A999B"/>
<path fill-rule="evenodd" clip-rule="evenodd" d="M454.741 211C463.661 211 470.891 219.064 470.891 229.012V406.708C470.891 416.657 463.661 424.72 454.741 424.72C445.82 424.72 438.59 416.657 438.59 406.708V229.012C438.59 219.064 445.82 211 454.741 211Z" fill="#C9CACC"/>
<path d="M470.891 225.746H438.59V410.161H470.891V225.746Z" fill="#9A999B"/>
<path fill-rule="evenodd" clip-rule="evenodd" d="M412.481 211C421.447 211 428.715 219.106 428.715 229.105V406.615C428.715 416.614 421.447 424.72 412.481 424.72C403.515 424.72 396.247 416.614 396.247 406.615V229.105C396.247 219.106 403.515 211 412.481 211Z" fill="#C9CACC"/>
<path d="M428.715 225.746H396.247V410.161H428.715V225.746Z" fill="#9A999B"/>
<path fill-rule="evenodd" clip-rule="evenodd" d="M370.305 211C379.271 211 386.54 219.106 386.54 229.105V406.615C386.54 416.614 379.271 424.72 370.305 424.72C361.34 424.72 354.071 416.614 354.071 406.615V229.105C354.071 219.106 361.34 211 370.305 211Z" fill="#C9CACC"/>
<path d="M386.54 225.746H354.071V410.161H386.54V225.746Z" fill="#9A999B"/>
<path fill-rule="evenodd" clip-rule="evenodd" d="M328.13 211C337.096 211 344.364 219.106 344.364 229.105V406.615C344.364 416.614 337.096 424.72 328.13 424.72C319.164 424.72 311.895 416.614 311.895 406.615V229.105C311.895 219.106 319.164 211 328.13 211Z" fill="#C9CACC"/>
<path d="M344.364 225.746H311.895V410.161H344.364V225.746Z" fill="#9A999B"/>
<path fill-rule="evenodd" clip-rule="evenodd" d="M287.46 211C296.426 211 303.695 219.106 303.695 229.105V406.615C303.695 416.614 296.426 424.72 287.46 424.72C278.494 424.72 271.226 416.614 271.226 406.615V229.105C271.226 219.106 278.494 211 287.46 211Z" fill="#C9CACC"/>
<path d="M303.862 225.746H271.393V410.161H303.862V225.746Z" fill="#9A999B"/>
<path fill-rule="evenodd" clip-rule="evenodd" d="M245.284 211C254.25 211 261.519 219.106 261.519 229.105V406.615C261.519 416.614 254.25 424.72 245.284 424.72C236.319 424.72 229.05 416.614 229.05 406.615V229.105C229.05 219.106 236.319 211 245.284 211Z" fill="#C9CACC"/>
<path d="M261.017 225.746H228.548V410.161H261.017V225.746Z" fill="#9A999B"/>
<path fill-rule="evenodd" clip-rule="evenodd" d="M203.025 211C211.945 211 219.176 219.064 219.176 229.012V406.708C219.176 416.657 211.945 424.72 203.025 424.72C194.105 424.72 186.875 416.657 186.875 406.708V229.012C186.875 219.064 194.105 211 203.025 211Z" fill="#C9CACC"/>
<path d="M218.841 225.746H186.372V410.161H218.841V225.746Z" fill="#9A999B"/>
<path fill-rule="evenodd" clip-rule="evenodd" d="M160.766 211C169.732 211 177 219.106 177 229.105V406.615C177 416.614 169.732 424.72 160.766 424.72C151.8 424.72 144.531 416.614 144.531 406.615V229.105C144.531 219.106 151.8 211 160.766 211Z" fill="#C9CACC"/>
<path d="M176.665 225.746H144.197V410.161H176.665V225.746Z" fill="#9A999B"/>
<path fill-rule="evenodd" clip-rule="evenodd" d="M118.59 211C127.556 211 134.824 219.106 134.824 229.105V406.615C134.824 416.614 127.556 424.72 118.59 424.72C109.624 424.72 102.356 416.614 102.356 406.615V229.105C102.356 219.106 109.624 211 118.59 211Z" fill="#C9CACC"/>
<path d="M134.49 225.746H102.021V410.161H134.49V225.746Z" fill="#9A999B"/>
<path fill-rule="evenodd" clip-rule="evenodd" d="M621.966 304.701H697C688.712 304.701 681.992 311.386 681.992 319.633C681.992 327.88 688.712 334.566 697 334.566H621.966C613.678 334.566 606.958 327.88 606.958 319.633C606.958 311.386 613.678 304.701 621.966 304.701Z" fill="#343433"/>
<path d="M697 236.198H518.925V304.701H697V236.198Z" fill="#343433"/>
<path d="M697 334.566H518.925V399.709H697V334.566Z" fill="#343433"/>
<path d="M621.519 236.198H97V399.709H621.519V236.198Z" fill="#343433"/>
<path d="M203.115 286H199.817L187.29 266.825V286H183.992V261.117H187.29L199.851 280.377V261.117H203.115V286ZM207.61 276.583C207.61 274.772 207.963 273.143 208.669 271.696C209.387 270.249 210.378 269.132 211.643 268.346C212.919 267.56 214.372 267.167 216.001 267.167C218.519 267.167 220.553 268.039 222.102 269.782C223.663 271.525 224.443 273.843 224.443 276.737V276.959C224.443 278.76 224.096 280.377 223.401 281.813C222.717 283.237 221.732 284.348 220.444 285.146C219.168 285.943 217.699 286.342 216.035 286.342C213.529 286.342 211.495 285.47 209.934 283.727C208.385 281.984 207.61 279.677 207.61 276.806V276.583ZM210.789 276.959C210.789 279.01 211.261 280.657 212.207 281.898C213.164 283.14 214.44 283.761 216.035 283.761C217.642 283.761 218.918 283.135 219.863 281.881C220.809 280.617 221.282 278.851 221.282 276.583C221.282 274.556 220.798 272.915 219.829 271.662C218.872 270.397 217.596 269.765 216.001 269.765C214.44 269.765 213.181 270.386 212.224 271.627C211.267 272.869 210.789 274.647 210.789 276.959ZM234.236 281.71L238.816 267.509H242.046L235.415 286H233.005L226.306 267.509H229.536L234.236 281.71ZM252.522 286.342C250.015 286.342 247.976 285.521 246.404 283.881C244.832 282.229 244.045 280.024 244.045 277.267V276.686C244.045 274.852 244.393 273.217 245.088 271.781C245.794 270.334 246.774 269.206 248.027 268.397C249.292 267.577 250.659 267.167 252.129 267.167C254.533 267.167 256.401 267.959 257.734 269.542C259.067 271.126 259.734 273.393 259.734 276.344V277.66H247.207C247.253 279.483 247.782 280.958 248.796 282.086C249.822 283.203 251.121 283.761 252.693 283.761C253.809 283.761 254.755 283.533 255.53 283.078C256.305 282.622 256.982 282.018 257.563 281.266L259.495 282.77C257.945 285.151 255.621 286.342 252.522 286.342ZM252.129 269.765C250.853 269.765 249.782 270.232 248.916 271.166C248.05 272.089 247.515 273.388 247.31 275.062H256.572V274.823C256.481 273.217 256.048 271.975 255.273 271.098C254.499 270.209 253.451 269.765 252.129 269.765ZM266.382 267.509L266.467 269.56C267.823 267.965 269.652 267.167 271.953 267.167C274.539 267.167 276.3 268.158 277.234 270.141C277.849 269.252 278.647 268.534 279.626 267.987C280.618 267.44 281.785 267.167 283.13 267.167C287.186 267.167 289.248 269.315 289.316 273.61V286H286.155V273.798C286.155 272.476 285.853 271.491 285.249 270.841C284.645 270.181 283.631 269.85 282.207 269.85C281.034 269.85 280.059 270.203 279.285 270.91C278.51 271.605 278.06 272.545 277.935 273.729V286H274.756V273.883C274.756 271.194 273.44 269.85 270.808 269.85C268.735 269.85 267.316 270.733 266.553 272.499V286H263.391V267.509H266.382ZM309.756 276.959C309.756 279.785 309.106 282.058 307.808 283.778C306.509 285.487 304.766 286.342 302.578 286.342C300.243 286.342 298.437 285.516 297.161 283.864L297.007 286H294.102V259.75H297.263V269.542C298.539 267.959 300.299 267.167 302.544 267.167C304.788 267.167 306.549 268.016 307.825 269.713C309.112 271.411 309.756 273.735 309.756 276.686V276.959ZM306.594 276.601C306.594 274.447 306.178 272.784 305.347 271.61C304.515 270.437 303.319 269.85 301.758 269.85C299.673 269.85 298.175 270.819 297.263 272.755V280.753C298.232 282.69 299.741 283.659 301.792 283.659C303.307 283.659 304.486 283.072 305.33 281.898C306.173 280.725 306.594 278.959 306.594 276.601ZM321.428 286.342C318.922 286.342 316.882 285.521 315.31 283.881C313.738 282.229 312.952 280.024 312.952 277.267V276.686C312.952 274.852 313.299 273.217 313.994 271.781C314.701 270.334 315.68 269.206 316.934 268.397C318.198 267.577 319.565 267.167 321.035 267.167C323.439 267.167 325.308 267.959 326.641 269.542C327.974 271.126 328.64 273.393 328.64 276.344V277.66H316.113C316.159 279.483 316.689 280.958 317.703 282.086C318.728 283.203 320.027 283.761 321.599 283.761C322.716 283.761 323.661 283.533 324.436 283.078C325.211 282.622 325.889 282.018 326.47 281.266L328.401 282.77C326.851 285.151 324.527 286.342 321.428 286.342ZM321.035 269.765C319.759 269.765 318.688 270.232 317.822 271.166C316.956 272.089 316.421 273.388 316.216 275.062H325.479V274.823C325.387 273.217 324.954 271.975 324.18 271.098C323.405 270.209 322.357 269.765 321.035 269.765ZM341.252 270.346C340.774 270.266 340.256 270.226 339.697 270.226C337.624 270.226 336.217 271.109 335.476 272.875V286H332.314V267.509H335.391L335.442 269.645C336.479 267.993 337.948 267.167 339.851 267.167C340.466 267.167 340.933 267.247 341.252 267.406V270.346ZM362.922 286H359.744V264.928L353.369 267.27V264.398L362.427 260.998H362.922V286ZM384.592 261.1V263.783H384.011C381.55 263.829 379.591 264.558 378.132 265.971C376.674 267.383 375.831 269.372 375.603 271.935C376.913 270.431 378.702 269.679 380.969 269.679C383.134 269.679 384.86 270.443 386.147 271.969C387.446 273.496 388.096 275.467 388.096 277.882C388.096 280.446 387.395 282.497 385.994 284.035C384.604 285.573 382.735 286.342 380.388 286.342C378.007 286.342 376.076 285.43 374.595 283.607C373.114 281.773 372.373 279.415 372.373 276.532V275.319C372.373 270.739 373.347 267.241 375.295 264.826C377.255 262.399 380.166 261.157 384.028 261.1H384.592ZM380.439 272.311C379.357 272.311 378.36 272.636 377.449 273.285C376.537 273.935 375.905 274.749 375.552 275.729V276.891C375.552 278.942 376.013 280.594 376.936 281.847C377.859 283.1 379.01 283.727 380.388 283.727C381.812 283.727 382.929 283.203 383.738 282.155C384.558 281.107 384.968 279.734 384.968 278.036C384.968 276.327 384.552 274.949 383.721 273.9C382.9 272.841 381.807 272.311 380.439 272.311ZM392.061 290.956L390.266 289.726C391.337 288.233 391.895 286.695 391.941 285.111V282.257H395.034V284.735C395.034 285.886 394.749 287.037 394.18 288.188C393.621 289.338 392.915 290.261 392.061 290.956ZM432.375 286H416.072V283.727L424.685 274.157C425.961 272.71 426.838 271.536 427.317 270.636C427.807 269.725 428.052 268.785 428.052 267.816C428.052 266.518 427.659 265.452 426.873 264.621C426.086 263.789 425.038 263.373 423.728 263.373C422.156 263.373 420.931 263.823 420.054 264.723C419.188 265.612 418.755 266.854 418.755 268.449H415.593C415.593 266.159 416.328 264.307 417.798 262.895C419.279 261.482 421.256 260.775 423.728 260.775C426.041 260.775 427.869 261.385 429.214 262.604C430.558 263.812 431.23 265.424 431.23 267.44C431.23 269.89 429.67 272.807 426.548 276.19L419.883 283.419H432.375V286ZM435.947 284.342C435.947 283.795 436.107 283.34 436.426 282.975C436.756 282.611 437.246 282.428 437.896 282.428C438.545 282.428 439.035 282.611 439.365 282.975C439.707 283.34 439.878 283.795 439.878 284.342C439.878 284.866 439.707 285.305 439.365 285.658C439.035 286.011 438.545 286.188 437.896 286.188C437.246 286.188 436.756 286.011 436.426 285.658C436.107 285.305 435.947 284.866 435.947 284.342ZM435.964 269.252C435.964 268.705 436.124 268.249 436.443 267.885C436.773 267.52 437.263 267.338 437.913 267.338C438.562 267.338 439.052 267.52 439.382 267.885C439.724 268.249 439.895 268.705 439.895 269.252C439.895 269.776 439.724 270.215 439.382 270.568C439.052 270.921 438.562 271.098 437.913 271.098C437.263 271.098 436.773 270.921 436.443 270.568C436.124 270.215 435.964 269.776 435.964 269.252ZM459.805 275.387C459.805 279.09 459.172 281.841 457.908 283.642C456.643 285.442 454.666 286.342 451.978 286.342C449.323 286.342 447.358 285.465 446.082 283.71C444.806 281.944 444.145 279.312 444.099 275.814V271.593C444.099 267.936 444.731 265.219 445.996 263.441C447.261 261.664 449.243 260.775 451.943 260.775C454.621 260.775 456.592 261.636 457.856 263.356C459.121 265.065 459.771 267.708 459.805 271.286V275.387ZM456.643 271.063C456.643 268.386 456.267 266.438 455.515 265.219C454.763 263.988 453.573 263.373 451.943 263.373C450.326 263.373 449.146 263.983 448.406 265.202C447.665 266.421 447.284 268.295 447.261 270.824V275.883C447.261 278.572 447.648 280.56 448.423 281.847C449.209 283.123 450.394 283.761 451.978 283.761C453.538 283.761 454.695 283.157 455.447 281.95C456.21 280.742 456.609 278.839 456.643 276.242V271.063ZM479.458 275.387C479.458 279.09 478.826 281.841 477.561 283.642C476.296 285.442 474.32 286.342 471.631 286.342C468.976 286.342 467.011 285.465 465.735 283.71C464.459 281.944 463.798 279.312 463.752 275.814V271.593C463.752 267.936 464.385 265.219 465.649 263.441C466.914 261.664 468.896 260.775 471.597 260.775C474.274 260.775 476.245 261.636 477.51 263.356C478.774 265.065 479.424 267.708 479.458 271.286V275.387ZM476.296 271.063C476.296 268.386 475.92 266.438 475.168 265.219C474.417 263.988 473.226 263.373 471.597 263.373C469.979 263.373 468.8 263.983 468.059 265.202C467.319 266.421 466.937 268.295 466.914 270.824V275.883C466.914 278.572 467.301 280.56 468.076 281.847C468.862 283.123 470.047 283.761 471.631 283.761C473.192 283.761 474.348 283.157 475.1 281.95C475.863 280.742 476.262 278.839 476.296 276.242V271.063ZM490.413 276.72H482.073V274.14H490.413V276.72ZM494.634 273.524L495.898 261.117H508.647V264.04H498.582L497.83 270.824C499.049 270.106 500.433 269.748 501.982 269.748C504.25 269.748 506.05 270.5 507.383 272.003C508.716 273.496 509.382 275.518 509.382 278.07C509.382 280.634 508.687 282.656 507.297 284.137C505.919 285.607 503.988 286.342 501.504 286.342C499.305 286.342 497.511 285.732 496.121 284.513C494.731 283.294 493.939 281.608 493.745 279.455H496.736C496.93 280.879 497.437 281.955 498.257 282.685C499.077 283.402 500.16 283.761 501.504 283.761C502.974 283.761 504.124 283.26 504.956 282.257C505.799 281.255 506.221 279.87 506.221 278.104C506.221 276.441 505.765 275.108 504.854 274.105C503.953 273.091 502.751 272.584 501.248 272.584C499.869 272.584 498.787 272.886 498 273.49L497.163 274.174L494.634 273.524ZM513.057 284.342C513.057 283.795 513.216 283.34 513.535 282.975C513.866 282.611 514.355 282.428 515.005 282.428C515.654 282.428 516.144 282.611 516.475 282.975C516.816 283.34 516.987 283.795 516.987 284.342C516.987 284.866 516.816 285.305 516.475 285.658C516.144 286.011 515.654 286.188 515.005 286.188C514.355 286.188 513.866 286.011 513.535 285.658C513.216 285.305 513.057 284.866 513.057 284.342ZM513.074 269.252C513.074 268.705 513.233 268.249 513.552 267.885C513.883 267.52 514.373 267.338 515.022 267.338C515.671 267.338 516.161 267.52 516.492 267.885C516.833 268.249 517.004 268.705 517.004 269.252C517.004 269.776 516.833 270.215 516.492 270.568C516.161 270.921 515.671 271.098 515.022 271.098C514.373 271.098 513.883 270.921 513.552 270.568C513.233 270.215 513.074 269.776 513.074 269.252ZM536.914 275.387C536.914 279.09 536.282 281.841 535.017 283.642C533.752 285.442 531.776 286.342 529.087 286.342C526.432 286.342 524.467 285.465 523.191 283.71C521.915 281.944 521.254 279.312 521.208 275.814V271.593C521.208 267.936 521.841 265.219 523.105 263.441C524.37 261.664 526.353 260.775 529.053 260.775C531.73 260.775 533.701 261.636 534.966 263.356C536.23 265.065 536.88 267.708 536.914 271.286V275.387ZM533.752 271.063C533.752 268.386 533.376 266.438 532.625 265.219C531.873 263.988 530.682 263.373 529.053 263.373C527.435 263.373 526.256 263.983 525.515 265.202C524.775 266.421 524.393 268.295 524.37 270.824V275.883C524.37 278.572 524.757 280.56 525.532 281.847C526.318 283.123 527.503 283.761 529.087 283.761C530.648 283.761 531.804 283.157 532.556 281.95C533.319 280.742 533.718 278.839 533.752 276.242V271.063ZM556.567 275.387C556.567 279.09 555.935 281.841 554.67 283.642C553.406 285.442 551.429 286.342 548.74 286.342C546.086 286.342 544.12 285.465 542.844 283.71C541.568 281.944 540.907 279.312 540.862 275.814V271.593C540.862 267.936 541.494 265.219 542.759 263.441C544.023 261.664 546.006 260.775 548.706 260.775C551.383 260.775 553.354 261.636 554.619 263.356C555.884 265.065 556.533 267.708 556.567 271.286V275.387ZM553.406 271.063C553.406 268.386 553.03 266.438 552.278 265.219C551.526 263.988 550.335 263.373 548.706 263.373C547.088 263.373 545.909 263.983 545.168 265.202C544.428 266.421 544.046 268.295 544.023 270.824V275.883C544.023 278.572 544.411 280.56 545.186 281.847C545.972 283.123 547.157 283.761 548.74 283.761C550.301 283.761 551.458 283.157 552.209 281.95C552.973 280.742 553.372 278.839 553.406 276.242V271.063ZM576.562 276.959C576.562 279.774 575.919 282.041 574.631 283.761C573.344 285.482 571.601 286.342 569.402 286.342C567.157 286.342 565.391 285.63 564.104 284.206V293.109H560.942V267.509H563.831L563.984 269.56C565.272 267.965 567.061 267.167 569.351 267.167C571.572 267.167 573.327 268.004 574.614 269.679C575.913 271.354 576.562 273.684 576.562 276.669V276.959ZM573.401 276.601C573.401 274.516 572.957 272.869 572.068 271.662C571.179 270.454 569.96 269.85 568.411 269.85C566.497 269.85 565.061 270.699 564.104 272.396V281.232C565.05 282.918 566.497 283.761 568.445 283.761C569.96 283.761 571.162 283.163 572.051 281.967C572.951 280.759 573.401 278.97 573.401 276.601ZM583.569 267.509L583.655 269.56C585.011 267.965 586.839 267.167 589.141 267.167C591.727 267.167 593.487 268.158 594.421 270.141C595.037 269.252 595.834 268.534 596.814 267.987C597.805 267.44 598.973 267.167 600.317 267.167C604.373 267.167 606.436 269.315 606.504 273.61V286H603.342V273.798C603.342 272.476 603.04 271.491 602.437 270.841C601.833 270.181 600.819 269.85 599.395 269.85C598.221 269.85 597.247 270.203 596.472 270.91C595.697 271.605 595.247 272.545 595.122 273.729V286H591.943V273.883C591.943 271.194 590.627 269.85 587.996 269.85C585.922 269.85 584.504 270.733 583.74 272.499V286H580.579V267.509H583.569Z" fill="white"/>
<path d="M180.533 321.029C180.533 323.502 180.141 325.635 179.355 327.428C178.57 329.209 177.469 330.604 176.051 331.611L180.621 335.197L178.318 337.324L172.922 333.035C172.078 333.246 171.188 333.352 170.25 333.352C168.234 333.352 166.447 332.859 164.889 331.875C163.33 330.879 162.117 329.467 161.25 327.639C160.395 325.799 159.955 323.672 159.932 321.258V319.412C159.932 316.951 160.359 314.777 161.215 312.891C162.07 311.004 163.277 309.562 164.836 308.566C166.406 307.559 168.199 307.055 170.215 307.055C172.277 307.055 174.088 307.553 175.646 308.549C177.217 309.545 178.424 310.98 179.268 312.855C180.111 314.719 180.533 316.898 180.533 319.395V321.029ZM177.158 319.377C177.158 316.365 176.555 314.045 175.348 312.416C174.152 310.775 172.441 309.955 170.215 309.955C168.094 309.955 166.418 310.77 165.188 312.398C163.969 314.016 163.342 316.266 163.307 319.148V321.029C163.307 323.959 163.916 326.268 165.135 327.955C166.365 329.643 168.07 330.486 170.25 330.486C172.43 330.486 174.117 329.695 175.312 328.113C176.508 326.52 177.123 324.24 177.158 321.275V319.377ZM196.969 331.119C195.703 332.607 193.846 333.352 191.396 333.352C189.369 333.352 187.822 332.766 186.756 331.594C185.701 330.41 185.168 328.664 185.156 326.355V313.98H188.408V326.268C188.408 329.15 189.58 330.592 191.924 330.592C194.408 330.592 196.061 329.666 196.881 327.814V313.98H200.133V333H197.039L196.969 331.119ZM216.832 333C216.645 332.625 216.492 331.957 216.375 330.996C214.863 332.566 213.059 333.352 210.961 333.352C209.086 333.352 207.545 332.824 206.338 331.77C205.143 330.703 204.545 329.355 204.545 327.727C204.545 325.746 205.295 324.211 206.795 323.121C208.307 322.02 210.428 321.469 213.158 321.469H216.322V319.975C216.322 318.838 215.982 317.936 215.303 317.268C214.623 316.588 213.621 316.248 212.297 316.248C211.137 316.248 210.164 316.541 209.379 317.127C208.594 317.713 208.201 318.422 208.201 319.254H204.932C204.932 318.305 205.266 317.391 205.934 316.512C206.613 315.621 207.527 314.918 208.676 314.402C209.836 313.887 211.107 313.629 212.49 313.629C214.682 313.629 216.398 314.18 217.641 315.281C218.883 316.371 219.527 317.877 219.574 319.799V328.553C219.574 330.299 219.797 331.688 220.242 332.719V333H216.832ZM211.436 330.521C212.455 330.521 213.422 330.258 214.336 329.73C215.25 329.203 215.912 328.518 216.322 327.674V323.771H213.773C209.789 323.771 207.797 324.938 207.797 327.27C207.797 328.289 208.137 329.086 208.816 329.66C209.496 330.234 210.369 330.521 211.436 330.521ZM228.205 333H224.953V306H228.205V333ZM241.055 330.697C242.215 330.697 243.229 330.346 244.096 329.643C244.963 328.939 245.443 328.061 245.537 327.006H248.613C248.555 328.096 248.18 329.133 247.488 330.117C246.797 331.102 245.871 331.887 244.711 332.473C243.562 333.059 242.344 333.352 241.055 333.352C238.465 333.352 236.402 332.49 234.867 330.768C233.344 329.033 232.582 326.666 232.582 323.666V323.121C232.582 321.27 232.922 319.623 233.602 318.182C234.281 316.74 235.254 315.621 236.52 314.824C237.797 314.027 239.303 313.629 241.037 313.629C243.17 313.629 244.939 314.268 246.346 315.545C247.764 316.822 248.52 318.48 248.613 320.52H245.537C245.443 319.289 244.975 318.281 244.131 317.496C243.299 316.699 242.268 316.301 241.037 316.301C239.385 316.301 238.102 316.898 237.188 318.094C236.285 319.277 235.834 320.994 235.834 323.244V323.859C235.834 326.051 236.285 327.738 237.188 328.922C238.09 330.105 239.379 330.697 241.055 330.697ZM251.408 323.314C251.408 321.451 251.771 319.775 252.498 318.287C253.236 316.799 254.256 315.65 255.557 314.842C256.869 314.033 258.363 313.629 260.039 313.629C262.629 313.629 264.721 314.525 266.314 316.318C267.92 318.111 268.723 320.496 268.723 323.473V323.701C268.723 325.553 268.365 327.217 267.65 328.693C266.947 330.158 265.934 331.301 264.609 332.121C263.297 332.941 261.785 333.352 260.074 333.352C257.496 333.352 255.404 332.455 253.799 330.662C252.205 328.869 251.408 326.496 251.408 323.543V323.314ZM254.678 323.701C254.678 325.811 255.164 327.504 256.137 328.781C257.121 330.059 258.434 330.697 260.074 330.697C261.727 330.697 263.039 330.053 264.012 328.764C264.984 327.463 265.471 325.646 265.471 323.314C265.471 321.229 264.973 319.541 263.977 318.252C262.992 316.951 261.68 316.301 260.039 316.301C258.434 316.301 257.139 316.939 256.154 318.217C255.17 319.494 254.678 321.322 254.678 323.701ZM275.859 313.98L275.947 316.09C277.342 314.449 279.223 313.629 281.59 313.629C284.25 313.629 286.061 314.648 287.021 316.688C287.654 315.773 288.475 315.035 289.482 314.473C290.502 313.91 291.703 313.629 293.086 313.629C297.258 313.629 299.379 315.838 299.449 320.256V333H296.197V320.449C296.197 319.09 295.887 318.076 295.266 317.408C294.645 316.729 293.602 316.389 292.137 316.389C290.93 316.389 289.928 316.752 289.131 317.479C288.334 318.193 287.871 319.16 287.742 320.379V333H284.473V320.537C284.473 317.771 283.119 316.389 280.412 316.389C278.279 316.389 276.82 317.297 276.035 319.113V333H272.783V313.98H275.859ZM307.43 313.98L307.518 316.09C308.912 314.449 310.793 313.629 313.16 313.629C315.82 313.629 317.631 314.648 318.592 316.688C319.225 315.773 320.045 315.035 321.053 314.473C322.072 313.91 323.273 313.629 324.656 313.629C328.828 313.629 330.949 315.838 331.02 320.256V333H327.768V320.449C327.768 319.09 327.457 318.076 326.836 317.408C326.215 316.729 325.172 316.389 323.707 316.389C322.5 316.389 321.498 316.752 320.701 317.479C319.904 318.193 319.441 319.16 319.312 320.379V333H316.043V320.537C316.043 317.771 314.689 316.389 311.982 316.389C309.85 316.389 308.391 317.297 307.605 319.113V333H304.354V313.98H307.43ZM364.207 324.879C363.891 327.586 362.889 329.678 361.201 331.154C359.525 332.619 357.293 333.352 354.504 333.352C351.48 333.352 349.055 332.268 347.227 330.1C345.41 327.932 344.502 325.031 344.502 321.398V318.938C344.502 316.559 344.924 314.467 345.768 312.662C346.623 310.857 347.83 309.475 349.389 308.514C350.947 307.541 352.752 307.055 354.803 307.055C357.521 307.055 359.701 307.816 361.342 309.34C362.982 310.852 363.938 312.949 364.207 315.633H360.814C360.521 313.594 359.883 312.117 358.898 311.203C357.926 310.289 356.561 309.832 354.803 309.832C352.646 309.832 350.953 310.629 349.723 312.223C348.504 313.816 347.895 316.084 347.895 319.025V321.504C347.895 324.281 348.475 326.49 349.635 328.131C350.795 329.771 352.418 330.592 354.504 330.592C356.379 330.592 357.814 330.17 358.811 329.326C359.818 328.471 360.486 326.988 360.814 324.879H364.207ZM367.459 323.314C367.459 321.451 367.822 319.775 368.549 318.287C369.287 316.799 370.307 315.65 371.607 314.842C372.92 314.033 374.414 313.629 376.09 313.629C378.68 313.629 380.771 314.525 382.365 316.318C383.971 318.111 384.773 320.496 384.773 323.473V323.701C384.773 325.553 384.416 327.217 383.701 328.693C382.998 330.158 381.984 331.301 380.66 332.121C379.348 332.941 377.836 333.352 376.125 333.352C373.547 333.352 371.455 332.455 369.85 330.662C368.256 328.869 367.459 326.496 367.459 323.543V323.314ZM370.729 323.701C370.729 325.811 371.215 327.504 372.188 328.781C373.172 330.059 374.484 330.697 376.125 330.697C377.777 330.697 379.09 330.053 380.062 328.764C381.035 327.463 381.521 325.646 381.521 323.314C381.521 321.229 381.023 319.541 380.027 318.252C379.043 316.951 377.73 316.301 376.09 316.301C374.484 316.301 373.189 316.939 372.205 318.217C371.221 319.494 370.729 321.322 370.729 323.701ZM391.928 313.98L392.033 316.371C393.486 314.543 395.385 313.629 397.729 313.629C401.748 313.629 403.775 315.896 403.811 320.432V333H400.559V320.414C400.547 319.043 400.23 318.029 399.609 317.373C399 316.717 398.045 316.389 396.744 316.389C395.689 316.389 394.764 316.67 393.967 317.232C393.17 317.795 392.549 318.533 392.104 319.447V333H388.852V313.98H391.928ZM410.314 333V316.494H407.309V313.98H410.314V312.029C410.314 309.99 410.859 308.414 411.949 307.301C413.039 306.188 414.58 305.631 416.572 305.631C417.322 305.631 418.066 305.73 418.805 305.93L418.629 308.566C418.078 308.461 417.492 308.408 416.871 308.408C415.816 308.408 415.002 308.719 414.428 309.34C413.854 309.949 413.566 310.828 413.566 311.977V313.98H417.627V316.494H413.566V333H410.314ZM428.701 333.352C426.123 333.352 424.025 332.508 422.408 330.82C420.791 329.121 419.982 326.854 419.982 324.018V323.42C419.982 321.533 420.34 319.852 421.055 318.375C421.781 316.887 422.789 315.727 424.078 314.895C425.379 314.051 426.785 313.629 428.297 313.629C430.77 313.629 432.691 314.443 434.062 316.072C435.434 317.701 436.119 320.033 436.119 323.068V324.422H423.234C423.281 326.297 423.826 327.814 424.869 328.975C425.924 330.123 427.26 330.697 428.877 330.697C430.025 330.697 430.998 330.463 431.795 329.994C432.592 329.525 433.289 328.904 433.887 328.131L435.873 329.678C434.279 332.127 431.889 333.352 428.701 333.352ZM428.297 316.301C426.984 316.301 425.883 316.781 424.992 317.742C424.102 318.691 423.551 320.027 423.34 321.75H432.867V321.504C432.773 319.852 432.328 318.574 431.531 317.672C430.734 316.758 429.656 316.301 428.297 316.301ZM449.092 316.898C448.6 316.816 448.066 316.775 447.492 316.775C445.359 316.775 443.912 317.684 443.15 319.5V333H439.898V313.98H443.062L443.115 316.178C444.182 314.479 445.693 313.629 447.65 313.629C448.283 313.629 448.764 313.711 449.092 313.875V316.898ZM459.639 333.352C457.061 333.352 454.963 332.508 453.346 330.82C451.729 329.121 450.92 326.854 450.92 324.018V323.42C450.92 321.533 451.277 319.852 451.992 318.375C452.719 316.887 453.727 315.727 455.016 314.895C456.316 314.051 457.723 313.629 459.234 313.629C461.707 313.629 463.629 314.443 465 316.072C466.371 317.701 467.057 320.033 467.057 323.068V324.422H454.172C454.219 326.297 454.764 327.814 455.807 328.975C456.861 330.123 458.197 330.697 459.814 330.697C460.963 330.697 461.936 330.463 462.732 329.994C463.529 329.525 464.227 328.904 464.824 328.131L466.811 329.678C465.217 332.127 462.826 333.352 459.639 333.352ZM459.234 316.301C457.922 316.301 456.82 316.781 455.93 317.742C455.039 318.691 454.488 320.027 454.277 321.75H463.805V321.504C463.711 319.852 463.266 318.574 462.469 317.672C461.672 316.758 460.594 316.301 459.234 316.301ZM473.912 313.98L474.018 316.371C475.471 314.543 477.369 313.629 479.713 313.629C483.732 313.629 485.76 315.896 485.795 320.432V333H482.543V320.414C482.531 319.043 482.215 318.029 481.594 317.373C480.984 316.717 480.029 316.389 478.729 316.389C477.674 316.389 476.748 316.67 475.951 317.232C475.154 317.795 474.533 318.533 474.088 319.447V333H470.836V313.98H473.912ZM498.328 330.697C499.488 330.697 500.502 330.346 501.369 329.643C502.236 328.939 502.717 328.061 502.811 327.006H505.887C505.828 328.096 505.453 329.133 504.762 330.117C504.07 331.102 503.145 331.887 501.984 332.473C500.836 333.059 499.617 333.352 498.328 333.352C495.738 333.352 493.676 332.49 492.141 330.768C490.617 329.033 489.855 326.666 489.855 323.666V323.121C489.855 321.27 490.195 319.623 490.875 318.182C491.555 316.74 492.527 315.621 493.793 314.824C495.07 314.027 496.576 313.629 498.311 313.629C500.443 313.629 502.213 314.268 503.619 315.545C505.037 316.822 505.793 318.48 505.887 320.52H502.811C502.717 319.289 502.248 318.281 501.404 317.496C500.572 316.699 499.541 316.301 498.311 316.301C496.658 316.301 495.375 316.898 494.461 318.094C493.559 319.277 493.107 320.994 493.107 323.244V323.859C493.107 326.051 493.559 327.738 494.461 328.922C495.363 330.105 496.652 330.697 498.328 330.697ZM517.436 333.352C514.857 333.352 512.76 332.508 511.143 330.82C509.525 329.121 508.717 326.854 508.717 324.018V323.42C508.717 321.533 509.074 319.852 509.789 318.375C510.516 316.887 511.523 315.727 512.812 314.895C514.113 314.051 515.52 313.629 517.031 313.629C519.504 313.629 521.426 314.443 522.797 316.072C524.168 317.701 524.854 320.033 524.854 323.068V324.422H511.969C512.016 326.297 512.561 327.814 513.604 328.975C514.658 330.123 515.994 330.697 517.611 330.697C518.76 330.697 519.732 330.463 520.529 329.994C521.326 329.525 522.023 328.904 522.621 328.131L524.607 329.678C523.014 332.127 520.623 333.352 517.436 333.352ZM517.031 316.301C515.719 316.301 514.617 316.781 513.727 317.742C512.836 318.691 512.285 320.027 512.074 321.75H521.602V321.504C521.508 319.852 521.062 318.574 520.266 317.672C519.469 316.758 518.391 316.301 517.031 316.301ZM547.459 322.646H541.447V333H538.055V307.406H546.527C549.41 307.406 551.625 308.062 553.172 309.375C554.73 310.688 555.51 312.598 555.51 315.105C555.51 316.699 555.076 318.088 554.209 319.271C553.354 320.455 552.158 321.34 550.623 321.926L556.635 332.789V333H553.014L547.459 322.646ZM541.447 319.887H546.633C548.309 319.887 549.639 319.453 550.623 318.586C551.619 317.719 552.117 316.559 552.117 315.105C552.117 313.523 551.643 312.311 550.693 311.467C549.756 310.623 548.396 310.195 546.615 310.184H541.447V319.887ZM558.885 323.314C558.885 321.451 559.248 319.775 559.975 318.287C560.713 316.799 561.732 315.65 563.033 314.842C564.346 314.033 565.84 313.629 567.516 313.629C570.105 313.629 572.197 314.525 573.791 316.318C575.396 318.111 576.199 320.496 576.199 323.473V323.701C576.199 325.553 575.842 327.217 575.127 328.693C574.424 330.158 573.41 331.301 572.086 332.121C570.773 332.941 569.262 333.352 567.551 333.352C564.973 333.352 562.881 332.455 561.275 330.662C559.682 328.869 558.885 326.496 558.885 323.543V323.314ZM562.154 323.701C562.154 325.811 562.641 327.504 563.613 328.781C564.598 330.059 565.91 330.697 567.551 330.697C569.203 330.697 570.516 330.053 571.488 328.764C572.461 327.463 572.947 325.646 572.947 323.314C572.947 321.229 572.449 319.541 571.453 318.252C570.469 316.951 569.156 316.301 567.516 316.301C565.91 316.301 564.615 316.939 563.631 318.217C562.646 319.494 562.154 321.322 562.154 323.701ZM579.416 323.314C579.416 321.451 579.779 319.775 580.506 318.287C581.244 316.799 582.264 315.65 583.564 314.842C584.877 314.033 586.371 313.629 588.047 313.629C590.637 313.629 592.729 314.525 594.322 316.318C595.928 318.111 596.73 320.496 596.73 323.473V323.701C596.73 325.553 596.373 327.217 595.658 328.693C594.955 330.158 593.941 331.301 592.617 332.121C591.305 332.941 589.793 333.352 588.082 333.352C585.504 333.352 583.412 332.455 581.807 330.662C580.213 328.869 579.416 326.496 579.416 323.543V323.314ZM582.686 323.701C582.686 325.811 583.172 327.504 584.145 328.781C585.129 330.059 586.441 330.697 588.082 330.697C589.734 330.697 591.047 330.053 592.02 328.764C592.992 327.463 593.479 325.646 593.479 323.314C593.479 321.229 592.98 319.541 591.984 318.252C591 316.951 589.688 316.301 588.047 316.301C586.441 316.301 585.146 316.939 584.162 318.217C583.178 319.494 582.686 321.322 582.686 323.701ZM603.867 313.98L603.955 316.09C605.35 314.449 607.23 313.629 609.598 313.629C612.258 313.629 614.068 314.648 615.029 316.688C615.662 315.773 616.482 315.035 617.49 314.473C618.51 313.91 619.711 313.629 621.094 313.629C625.266 313.629 627.387 315.838 627.457 320.256V333H624.205V320.449C624.205 319.09 623.895 318.076 623.273 317.408C622.652 316.729 621.609 316.389 620.145 316.389C618.938 316.389 617.936 316.752 617.139 317.479C616.342 318.193 615.879 319.16 615.75 320.379V333H612.48V320.537C612.48 317.771 611.127 316.389 608.42 316.389C606.287 316.389 604.828 317.297 604.043 319.113V333H600.791V313.98H603.867ZM632.273 338.098L630.428 336.832C631.529 335.297 632.104 333.715 632.15 332.086V329.15H635.332V331.699C635.332 332.883 635.039 334.066 634.453 335.25C633.879 336.434 633.152 337.383 632.273 338.098ZM241.389 349.406H244.781V367.529C244.781 369.979 244.043 371.895 242.566 373.277C241.102 374.66 239.145 375.352 236.695 375.352C234.152 375.352 232.172 374.701 230.754 373.4C229.336 372.1 228.627 370.277 228.627 367.934H232.002C232.002 369.398 232.4 370.541 233.197 371.361C234.006 372.182 235.172 372.592 236.695 372.592C238.09 372.592 239.215 372.152 240.07 371.273C240.938 370.395 241.377 369.164 241.389 367.582V349.406ZM261.762 375C261.574 374.625 261.422 373.957 261.305 372.996C259.793 374.566 257.988 375.352 255.891 375.352C254.016 375.352 252.475 374.824 251.268 373.77C250.072 372.703 249.475 371.355 249.475 369.727C249.475 367.746 250.225 366.211 251.725 365.121C253.236 364.02 255.357 363.469 258.088 363.469H261.252V361.975C261.252 360.838 260.912 359.936 260.232 359.268C259.553 358.588 258.551 358.248 257.227 358.248C256.066 358.248 255.094 358.541 254.309 359.127C253.523 359.713 253.131 360.422 253.131 361.254H249.861C249.861 360.305 250.195 359.391 250.863 358.512C251.543 357.621 252.457 356.918 253.605 356.402C254.766 355.887 256.037 355.629 257.42 355.629C259.611 355.629 261.328 356.18 262.57 357.281C263.812 358.371 264.457 359.877 264.504 361.799V370.553C264.504 372.299 264.727 373.688 265.172 374.719V375H261.762ZM256.365 372.521C257.385 372.521 258.352 372.258 259.266 371.73C260.18 371.203 260.842 370.518 261.252 369.674V365.771H258.703C254.719 365.771 252.727 366.938 252.727 369.27C252.727 370.289 253.066 371.086 253.746 371.66C254.426 372.234 255.299 372.521 256.365 372.521ZM277.23 372.697C278.391 372.697 279.404 372.346 280.271 371.643C281.139 370.939 281.619 370.061 281.713 369.006H284.789C284.73 370.096 284.355 371.133 283.664 372.117C282.973 373.102 282.047 373.887 280.887 374.473C279.738 375.059 278.52 375.352 277.23 375.352C274.641 375.352 272.578 374.49 271.043 372.768C269.52 371.033 268.758 368.666 268.758 365.666V365.121C268.758 363.27 269.098 361.623 269.777 360.182C270.457 358.74 271.43 357.621 272.695 356.824C273.973 356.027 275.479 355.629 277.213 355.629C279.346 355.629 281.115 356.268 282.521 357.545C283.939 358.822 284.695 360.48 284.789 362.52H281.713C281.619 361.289 281.15 360.281 280.307 359.496C279.475 358.699 278.443 358.301 277.213 358.301C275.561 358.301 274.277 358.898 273.363 360.094C272.461 361.277 272.01 362.994 272.01 365.244V365.859C272.01 368.051 272.461 369.738 273.363 370.922C274.266 372.105 275.555 372.697 277.23 372.697ZM287.584 365.314C287.584 363.451 287.947 361.775 288.674 360.287C289.412 358.799 290.432 357.65 291.732 356.842C293.045 356.033 294.539 355.629 296.215 355.629C298.805 355.629 300.896 356.525 302.49 358.318C304.096 360.111 304.898 362.496 304.898 365.473V365.701C304.898 367.553 304.541 369.217 303.826 370.693C303.123 372.158 302.109 373.301 300.785 374.121C299.473 374.941 297.961 375.352 296.25 375.352C293.672 375.352 291.58 374.455 289.975 372.662C288.381 370.869 287.584 368.496 287.584 365.543V365.314ZM290.854 365.701C290.854 367.811 291.34 369.504 292.312 370.781C293.297 372.059 294.609 372.697 296.25 372.697C297.902 372.697 299.215 372.053 300.188 370.764C301.16 369.463 301.646 367.646 301.646 365.314C301.646 363.229 301.148 361.541 300.152 360.252C299.168 358.951 297.855 358.301 296.215 358.301C294.609 358.301 293.314 358.939 292.33 360.217C291.346 361.494 290.854 363.322 290.854 365.701ZM325.078 365.701C325.078 368.607 324.41 370.945 323.074 372.715C321.738 374.473 319.945 375.352 317.695 375.352C315.293 375.352 313.436 374.502 312.123 372.803L311.965 375H308.977V348H312.229V358.072C313.541 356.443 315.352 355.629 317.66 355.629C319.969 355.629 321.779 356.502 323.092 358.248C324.416 359.994 325.078 362.385 325.078 365.42V365.701ZM321.826 365.332C321.826 363.117 321.398 361.406 320.543 360.199C319.688 358.992 318.457 358.389 316.852 358.389C314.707 358.389 313.166 359.385 312.229 361.377V369.604C313.225 371.596 314.777 372.592 316.887 372.592C318.445 372.592 319.658 371.988 320.525 370.781C321.393 369.574 321.826 367.758 321.826 365.332ZM340.266 369.955C340.266 369.076 339.932 368.396 339.264 367.916C338.607 367.424 337.453 367.002 335.801 366.65C334.16 366.299 332.854 365.877 331.881 365.385C330.92 364.893 330.205 364.307 329.736 363.627C329.279 362.947 329.051 362.139 329.051 361.201C329.051 359.643 329.707 358.324 331.02 357.246C332.344 356.168 334.031 355.629 336.082 355.629C338.238 355.629 339.984 356.186 341.32 357.299C342.668 358.412 343.342 359.836 343.342 361.57H340.072C340.072 360.68 339.691 359.912 338.93 359.268C338.18 358.623 337.23 358.301 336.082 358.301C334.898 358.301 333.973 358.559 333.305 359.074C332.637 359.59 332.303 360.264 332.303 361.096C332.303 361.881 332.613 362.473 333.234 362.871C333.855 363.27 334.975 363.65 336.592 364.014C338.221 364.377 339.539 364.811 340.547 365.314C341.555 365.818 342.299 366.428 342.779 367.143C343.271 367.846 343.518 368.707 343.518 369.727C343.518 371.426 342.838 372.791 341.479 373.822C340.119 374.842 338.355 375.352 336.188 375.352C334.664 375.352 333.316 375.082 332.145 374.543C330.973 374.004 330.053 373.254 329.385 372.293C328.729 371.32 328.4 370.271 328.4 369.146H331.652C331.711 370.236 332.145 371.104 332.953 371.748C333.773 372.381 334.852 372.697 336.188 372.697C337.418 372.697 338.402 372.451 339.141 371.959C339.891 371.455 340.266 370.787 340.266 369.955ZM376.863 375H373.471V363.17H360.568V375H357.193V349.406H360.568V360.41H373.471V349.406H376.863V375ZM394.09 375C393.902 374.625 393.75 373.957 393.633 372.996C392.121 374.566 390.316 375.352 388.219 375.352C386.344 375.352 384.803 374.824 383.596 373.77C382.4 372.703 381.803 371.355 381.803 369.727C381.803 367.746 382.553 366.211 384.053 365.121C385.564 364.02 387.686 363.469 390.416 363.469H393.58V361.975C393.58 360.838 393.24 359.936 392.561 359.268C391.881 358.588 390.879 358.248 389.555 358.248C388.395 358.248 387.422 358.541 386.637 359.127C385.852 359.713 385.459 360.422 385.459 361.254H382.189C382.189 360.305 382.523 359.391 383.191 358.512C383.871 357.621 384.785 356.918 385.934 356.402C387.094 355.887 388.365 355.629 389.748 355.629C391.939 355.629 393.656 356.18 394.898 357.281C396.141 358.371 396.785 359.877 396.832 361.799V370.553C396.832 372.299 397.055 373.688 397.5 374.719V375H394.09ZM388.693 372.521C389.713 372.521 390.68 372.258 391.594 371.73C392.508 371.203 393.17 370.518 393.58 369.674V365.771H391.031C387.047 365.771 385.055 366.938 385.055 369.27C385.055 370.289 385.395 371.086 386.074 371.66C386.754 372.234 387.627 372.521 388.693 372.521ZM405.463 375H402.211V348H405.463V375ZM414.217 375H410.965V348H414.217V375ZM438.721 375H435.451V353.326L428.895 355.734V352.781L438.211 349.283H438.721V375ZM459.656 369.955C459.656 369.076 459.322 368.396 458.654 367.916C457.998 367.424 456.844 367.002 455.191 366.65C453.551 366.299 452.244 365.877 451.271 365.385C450.311 364.893 449.596 364.307 449.127 363.627C448.67 362.947 448.441 362.139 448.441 361.201C448.441 359.643 449.098 358.324 450.41 357.246C451.734 356.168 453.422 355.629 455.473 355.629C457.629 355.629 459.375 356.186 460.711 357.299C462.059 358.412 462.732 359.836 462.732 361.57H459.463C459.463 360.68 459.082 359.912 458.32 359.268C457.57 358.623 456.621 358.301 455.473 358.301C454.289 358.301 453.363 358.559 452.695 359.074C452.027 359.59 451.693 360.264 451.693 361.096C451.693 361.881 452.004 362.473 452.625 362.871C453.246 363.27 454.365 363.65 455.982 364.014C457.611 364.377 458.93 364.811 459.938 365.314C460.945 365.818 461.689 366.428 462.17 367.143C462.662 367.846 462.908 368.707 462.908 369.727C462.908 371.426 462.229 372.791 460.869 373.822C459.51 374.842 457.746 375.352 455.578 375.352C454.055 375.352 452.707 375.082 451.535 374.543C450.363 374.004 449.443 373.254 448.775 372.293C448.119 371.32 447.791 370.271 447.791 369.146H451.043C451.102 370.236 451.535 371.104 452.344 371.748C453.164 372.381 454.242 372.697 455.578 372.697C456.809 372.697 457.793 372.451 458.531 371.959C459.281 371.455 459.656 370.787 459.656 369.955ZM471.557 351.375V355.98H475.107V358.494H471.557V370.289C471.557 371.051 471.715 371.625 472.031 372.012C472.348 372.387 472.887 372.574 473.648 372.574C474.023 372.574 474.539 372.504 475.195 372.363V375C474.34 375.234 473.508 375.352 472.699 375.352C471.246 375.352 470.15 374.912 469.412 374.033C468.674 373.154 468.305 371.906 468.305 370.289V358.494H464.842V355.98H468.305V351.375H471.557ZM502.477 363.697H491.736V375H488.361V349.406H504.217V352.184H491.736V360.938H502.477V363.697ZM511.283 375H508.031V348H511.283V375ZM515.643 365.314C515.643 363.451 516.006 361.775 516.732 360.287C517.471 358.799 518.49 357.65 519.791 356.842C521.104 356.033 522.598 355.629 524.273 355.629C526.863 355.629 528.955 356.525 530.549 358.318C532.154 360.111 532.957 362.496 532.957 365.473V365.701C532.957 367.553 532.6 369.217 531.885 370.693C531.182 372.158 530.168 373.301 528.844 374.121C527.531 374.941 526.02 375.352 524.309 375.352C521.73 375.352 519.639 374.455 518.033 372.662C516.439 370.869 515.643 368.496 515.643 365.543V365.314ZM518.912 365.701C518.912 367.811 519.398 369.504 520.371 370.781C521.355 372.059 522.668 372.697 524.309 372.697C525.961 372.697 527.273 372.053 528.246 370.764C529.219 369.463 529.705 367.646 529.705 365.314C529.705 363.229 529.207 361.541 528.211 360.252C527.227 358.951 525.914 358.301 524.273 358.301C522.668 358.301 521.373 358.939 520.389 360.217C519.404 361.494 518.912 363.322 518.912 365.701ZM536.174 365.314C536.174 363.451 536.537 361.775 537.264 360.287C538.002 358.799 539.021 357.65 540.322 356.842C541.635 356.033 543.129 355.629 544.805 355.629C547.395 355.629 549.486 356.525 551.08 358.318C552.686 360.111 553.488 362.496 553.488 365.473V365.701C553.488 367.553 553.131 369.217 552.416 370.693C551.713 372.158 550.699 373.301 549.375 374.121C548.062 374.941 546.551 375.352 544.84 375.352C542.262 375.352 540.17 374.455 538.564 372.662C536.971 370.869 536.174 368.496 536.174 365.543V365.314ZM539.443 365.701C539.443 367.811 539.93 369.504 540.902 370.781C541.887 372.059 543.199 372.697 544.84 372.697C546.492 372.697 547.805 372.053 548.777 370.764C549.75 369.463 550.236 367.646 550.236 365.314C550.236 363.229 549.738 361.541 548.742 360.252C547.758 358.951 546.445 358.301 544.805 358.301C543.199 358.301 541.904 358.939 540.92 360.217C539.936 361.494 539.443 363.322 539.443 365.701ZM566.76 358.898C566.268 358.816 565.734 358.775 565.16 358.775C563.027 358.775 561.58 359.684 560.818 361.5V375H557.566V355.98H560.73L560.783 358.178C561.85 356.479 563.361 355.629 565.318 355.629C565.951 355.629 566.432 355.711 566.76 355.875V358.898Z" fill="white"/>
<defs>
<clipPath id="clip0">
<rect width="410.417" height="50" fill="white" transform="translate(0 565)"/>
</clipPath>
<clipPath id="clip1">
<rect width="306.25" height="50" fill="white" transform="translate(466 565)"/>
</clipPath>
<clipPath id="clip2">
<rect width="50" height="21.4602" fill="white" transform="translate(229 154)"/>
</clipPath>
<clipPath id="clip3">
<rect width="50" height="21.4602" fill="white" transform="translate(300 440)"/>
</clipPath>
</defs>
</svg>
