<svg width="150" height="133" viewBox="0 -20 150 153" fill="none" xmlns="http://www.w3.org/2000/svg">
<path fill-rule="evenodd" clip-rule="evenodd" d="M0 0H6.02782H6.72334H19.2427V7.18702H6.72334V20.17H17.6198V27.357H6.72334V41.0355H19.7063V48.2226H6.72334H6.4915H0V0ZM28.2844 0C26.3138 0 24.3431 1.97063 24.3431 3.47759V44.745C24.3431 46.2519 26.3138 48.2226 28.2844 48.2226H44.2813C46.2519 48.2226 48.2226 46.2519 48.2226 44.745V31.762H41.4992V41.0355H31.762V7.18702H41.4992V16.4606H48.2226V3.47759C48.2226 1.97063 46.2519 0 44.2813 0H28.2844ZM60.0464 0H54.0186V48.2226H60.51H60.7419H73.7249H80.3326L73.1455 41.0355H60.7419V27.357H71.6383V20.17H60.7419V7.18702H73.2612V0H60.7419H60.0464ZM87.2877 41.0355L94.4747 48.2226H150V41.0355H87.2877ZM90.1855 0.463679H85.7805V31.3384H85.7829C85.8437 32.4488 87.1706 33.8485 88.4976 33.8485H99.5243H99.5245C100.851 33.8484 102.178 32.4488 102.239 31.3384H102.241V31.26V0.463679H97.6043V28.4988H90.1855V0.463679ZM108.823 0.463679H108.822C107.533 0.463801 106.244 1.75653 106.184 2.78207H106.182V2.85452V11.1283V12.7512L117.774 22.7202L117.774 28.6756H111.051V22.7202H106.182V31.2258V31.5301H106.217C106.435 32.5084 107.629 33.6166 108.822 33.6167L108.823 33.6167L119.539 33.6167V31.2983H119.539V33.6167C120.829 33.6167 122.118 32.3239 122.177 31.2983H122.179V31.2258V22.7202V21.5611V21.0974L111.051 11.1283V5.40475H117.676V11.7803H122.179V2.85452L122.179 2.85452C122.179 1.81849 120.859 0.463679 119.539 0.463679V2.85452L119.539 2.85452V0.463679H108.823ZM129.224 0.463679C127.904 0.463773 126.584 1.81853 126.584 2.85452V31.2258C126.584 32.2618 127.904 33.6166 129.224 33.6167L129.224 33.6167L139.941 33.6167V31.2258L139.941 31.2258V33.6167C141.261 33.6167 142.581 32.2619 142.581 31.2258L142.581 31.2258V22.3H138.077V28.6756H131.554V5.40475H138.077V11.7803H142.581V2.85452L142.581 2.85452C142.581 1.81849 141.261 0.463679 139.941 0.463679V2.85452L139.941 2.85452V0.463679H129.224H129.224Z" fill="white"/>
<path fill-rule="evenodd" clip-rule="evenodd" d="M26.9739 76.975C26.8293 76.8355 26.1785 76.3751 25.5277 75.9286C24.5298 75.2729 24.1972 75.1334 23.6043 75.0915C23.1704 75.0636 22.7511 75.1055 22.5775 75.2171C21.9267 75.5938 21.1169 76.1518 20.2781 76.7797C19.9764 77.0057 19.7276 77.1917 19.5197 77.347L19.5002 77.3615C18.6989 77.9603 18.5165 78.0966 18.2535 78.3283L18.1364 78.4235L18.1356 78.4242C17.8928 78.6217 17.4549 78.9779 17.0676 79.3049C14.2765 81.6208 11.7023 84.174 9.15704 87.1875C8.65338 87.7891 8.14972 88.3811 7.91817 88.6532L7.8121 88.7779C7.47949 89.1686 7.19025 89.922 7.19025 90.3545C7.20471 90.8986 7.62411 91.7496 8.26042 92.489L8.53711 92.812C9.1307 93.5048 9.31875 93.7243 9.85121 94.3725C10.69 95.391 11.4998 96.2141 13.7703 98.4184C16.1999 100.762 17.1688 101.613 19.3381 103.301C19.6202 103.519 19.9375 103.771 20.1389 103.931L20.2781 104.041C22.4907 105.813 23.4018 106.092 24.6745 105.366C25.5855 104.864 27.5523 103.455 28.637 102.534C31.8764 99.7996 34.9857 96.8 36.8368 94.5957C37.0005 94.3962 37.2001 94.162 37.3715 93.9611L37.3723 93.9601C37.488 93.8244 37.5912 93.7034 37.6611 93.6191C38.2829 92.9215 38.3552 92.8239 38.9337 92.0007C39.4254 91.2892 39.5122 91.0799 39.4977 90.4521C39.4977 89.8243 39.4109 89.5871 38.9192 88.9035L38.8668 88.8281C38.6942 88.5802 38.5795 88.4153 38.4599 88.2539C38.2222 87.9333 37.9656 87.6268 37.1989 86.7109L36.6054 86.0016C35.1592 84.2856 31.2401 80.421 29.6782 79.1654C29.201 78.7747 28.7093 78.3701 28.5791 78.2585C28.449 78.1469 28.1019 77.8539 27.7982 77.6307L27.7554 77.5973C27.46 77.3666 27.1118 77.0947 26.9739 76.975ZM22.0424 79.6398C21.3483 80.9513 20.7843 82.0395 20.7843 82.0814C20.7843 82.1232 21.059 82.1651 21.4061 82.193L22.0135 82.2348L22.187 85.0809C22.2883 86.6574 22.3317 87.9689 22.3027 88.0107C22.1437 88.1502 20.6975 88.2619 20.4661 88.1502C20.2781 88.0526 19.6273 86.5458 19.6273 86.1831C19.6273 86.1273 19.8876 86.0715 20.2058 86.0715C20.5239 86.0715 20.7843 86.0157 20.7843 85.9459C20.7843 85.8762 20.4372 85.5692 20.0322 85.2483C19.6129 84.9414 19.1645 84.6066 19.0488 84.5089C18.3981 83.9788 17.1544 83.1417 17.0242 83.1417C16.923 83.1417 16.894 83.2672 16.9519 83.4486C16.9661 83.493 16.9846 83.5517 17.0062 83.6201L17.0077 83.6251C17.0741 83.8356 17.1689 84.136 17.2556 84.3973C17.3568 84.7461 17.6027 85.5553 17.8051 86.211C17.9277 86.6386 18.1242 87.2799 18.3102 87.8871C18.4093 88.2107 18.5056 88.5253 18.5861 88.792C18.6329 88.9436 18.6726 89.0794 18.708 89.201L18.7085 89.2026L18.7088 89.2037C18.8388 89.6497 18.9129 89.9038 19.0817 90.0368C19.304 90.2118 19.6908 90.1778 20.5869 90.099L20.5893 90.0988C20.7681 90.0831 20.9671 90.0656 21.1892 90.0476L22.5197 89.936L22.5486 90.7592L22.5692 91.3112C22.6116 92.4543 22.634 93.057 22.7221 94.5261C22.8089 96.0049 22.7944 96.2282 22.592 96.3119C22.3606 96.3956 19.4972 95.9073 19.0633 95.712C18.9331 95.6562 18.5861 95.4887 18.2824 95.3353C17.9787 95.1957 17.6171 94.9028 17.5014 94.6656C17.299 94.2889 17.299 94.2052 17.5159 93.8146C17.8051 93.2983 18.7741 92.7124 19.8442 92.4194C20.2781 92.2938 20.6396 92.1683 20.6396 92.1404C20.6396 92.0985 20.2492 91.8334 19.7575 91.5126C18.7307 90.8568 18.3258 90.815 17.2267 91.3033C16.7928 91.4986 16.4168 91.6521 16.3734 91.6521C16.1999 91.6521 14.9706 92.5589 14.6525 92.9217C14.2476 93.3821 14.1463 94.2191 14.4211 94.7214C15.014 95.7957 19.0488 97.0932 21.8255 97.0932C22.2738 97.0932 22.6787 97.135 22.7077 97.1908C22.8089 97.3443 22.939 99.9253 22.968 101.767C22.9824 103.818 23.0692 104.348 23.3874 104.348C23.72 104.348 23.7778 104.041 23.8068 102.395C23.8357 100.469 23.9947 97.3164 24.0671 97.1908C24.096 97.135 24.3997 97.0932 24.7323 97.0932C25.7012 97.0932 28.0585 96.7165 29.0853 96.3956C31.1822 95.7399 32.209 94.5679 31.5871 93.5216C31.3847 93.1728 30.6616 92.5729 30.2711 92.4473C30.0542 92.3636 30.0397 92.3078 30.1844 92.1404C30.2856 92.0148 30.3434 91.9032 30.3145 91.8753C30.2856 91.8474 29.6782 91.7218 28.9551 91.5823C28.2465 91.4428 27.5957 91.2754 27.5234 91.2056C27.3499 91.0661 26.8582 91.0522 26.8582 91.1917C26.8582 91.2614 26.9449 91.5823 27.0606 91.9311L27.2486 92.5589L28.1019 92.5729C29.0997 92.5868 29.9241 92.9914 30.2567 93.6192C30.6038 94.261 30.1121 95.0562 29.1576 95.405C28.9744 95.4701 28.772 95.5538 28.6145 95.6189L28.6122 95.6199C28.5344 95.652 28.4678 95.6796 28.42 95.698C28.0296 95.9073 25.0215 96.4235 24.5154 96.3677C24.4976 96.3659 24.4804 96.3645 24.4638 96.3634L24.4383 96.3618L24.3937 96.3596C24.3122 96.3558 24.2478 96.3529 24.1981 96.3243C24.0113 96.2169 24.0322 95.7479 24.132 93.5154C24.1432 93.2658 24.1553 92.9941 24.1683 92.6984C24.2406 91.3172 24.3418 90.1314 24.4141 90.0476C24.5009 89.964 25.1083 89.9779 26.0917 90.0895C26.9449 90.1732 27.6825 90.2151 27.7259 90.1453C27.8126 90.0476 28.2031 88.8478 29.0274 86.1412C29.2733 85.2902 29.577 84.3415 29.6927 84.0067C29.9385 83.2672 29.953 83.0859 29.7216 83.1835C29.36 83.3091 25.9905 85.8064 25.9905 85.932C25.9905 86.0157 26.2508 86.0715 26.5689 86.0715C26.8871 86.0715 27.1474 86.1273 27.1474 86.197C27.1474 86.2668 27.0462 86.6574 26.916 87.062C26.5979 88.0665 26.3086 88.3037 25.5277 88.2061C24.5009 88.0805 24.3852 87.9689 24.4575 87.1876C24.5009 86.8109 24.5732 85.6111 24.6311 84.5089C24.6745 83.4067 24.7901 82.4301 24.8769 82.3325C24.9492 82.2488 25.2385 82.1651 25.4988 82.1651C25.7735 82.1651 25.9905 82.1372 25.9905 82.0953C25.9905 81.9418 23.503 77.3518 23.4018 77.3099C23.344 77.296 22.7366 78.3424 22.0424 79.6398Z" fill="white"/>
<path fill-rule="evenodd" clip-rule="evenodd" d="M25.7739 70.4597C24.7471 69.0646 24.2121 68.4647 23.8794 68.353C23.0117 68.0322 22.5634 68.2554 21.5511 69.5668C21.3342 69.8598 21.1173 70.1249 21.0739 70.1667C21.0016 70.2225 20.264 71.1433 19.3818 72.2595C16.4027 76.0264 9.25865 82.9184 5.16599 85.9459C5.09668 85.9984 4.99009 86.0771 4.86245 86.1713L4.86019 86.173C4.61526 86.3538 4.2935 86.5913 4.00905 86.8109C3.5752 87.1318 3.18473 87.4247 3.14135 87.4666C3.09796 87.5084 2.60626 87.8293 2.04226 88.1921C0.726243 89.0292 0.147775 89.5593 0.0320793 90.0197C-0.126997 90.6196 0.306852 91.2753 1.30471 91.9032C1.79641 92.224 2.34595 92.5868 2.53396 92.7263C2.57913 92.7598 2.63684 92.8022 2.70265 92.8505C2.91068 93.0033 3.20009 93.216 3.43058 93.396C3.58508 93.5044 3.79756 93.6589 4.01832 93.8194L4.0198 93.8205L4.02491 93.8242L4.03303 93.8301L4.03397 93.8308C4.26299 93.9974 4.49965 94.1695 4.68875 94.3028C5.06476 94.5679 5.51307 94.8888 5.67215 95.0283C5.71637 95.0632 5.79634 95.1272 5.90151 95.2116L6.1929 95.4458L6.19673 95.4489C6.44613 95.6494 6.74968 95.8934 7.04601 96.1305C7.63894 96.6048 8.20295 97.0652 8.27526 97.1489C8.36202 97.2326 8.81034 97.6093 9.28757 98C10.3577 98.865 14.5372 102.841 15.6507 104.069C16.1135 104.571 16.7498 105.255 17.0824 105.604C17.6898 106.231 18.1671 106.789 18.6588 107.459L18.7166 107.532C18.9201 107.787 19.4258 108.423 19.9314 109.036C20.1667 109.328 20.394 109.608 20.5816 109.839C20.8322 110.148 21.0119 110.369 21.045 110.417C21.1173 110.487 21.2908 110.766 21.4354 111.003C21.5945 111.254 21.768 111.463 21.8259 111.463C21.8837 111.463 21.9416 111.547 21.9416 111.658C21.9416 111.91 22.3031 112.189 22.925 112.398C23.6625 112.635 24.0964 112.37 25.0798 111.073C26.0198 109.859 28.1167 107.292 28.8109 106.524C32.1371 102.855 36.143 98.9487 37.9218 97.6233C38.1676 97.4559 38.4568 97.2047 38.5725 97.0792C38.775 96.8559 40.0187 95.8514 41.2335 94.9306L41.4016 94.7992C41.6472 94.607 41.874 94.4295 41.9566 94.3726C42.0433 94.2889 42.347 94.0656 42.6218 93.8843C42.8966 93.7029 43.1569 93.5076 43.2003 93.4657C43.4172 93.2565 44.5163 92.4891 44.9502 92.2659C46.5265 91.4428 46.9748 90.7731 46.5843 89.8523C46.4108 89.4198 46.1505 89.1687 45.4419 88.7362C43.9523 87.8433 41.5661 86.0993 39.3969 84.3275C39.1655 84.1322 38.5147 83.602 37.9362 83.1416C36.7504 82.179 30.9078 76.5147 29.8232 75.273C29.7469 75.1889 29.6691 75.1028 29.5919 75.0173L29.392 74.7956C29.1373 74.5131 28.9137 74.2651 28.8109 74.1569C28.6518 73.9755 28.3481 73.6267 28.1312 73.3616C27.9143 73.0966 27.3936 72.4687 26.9742 71.9665C26.5549 71.4642 26.0198 70.7806 25.7739 70.4597ZM21.3917 74.6451C21.623 74.4637 22.0569 74.2265 22.3461 74.1149C23.1849 73.822 24.9203 74.101 25.6145 74.6311C25.6876 74.7017 26.2645 75.1392 26.9724 75.6761L27.3788 75.9844C30.0108 78.0074 33.2503 80.9093 35.1737 83.002C35.2937 83.1323 35.4254 83.2757 35.5604 83.4227L35.5639 83.4265C35.9485 83.8453 36.3598 84.2931 36.6054 84.5506C36.938 84.8994 37.4008 85.4156 37.6322 85.7086L37.7687 85.8711L37.7699 85.8726L37.7716 85.8745L37.7725 85.8757L37.7741 85.8775L37.7748 85.8783L37.7771 85.8811C37.973 86.1141 38.1525 86.3277 38.2106 86.4062C39.4109 87.7316 40.7414 89.8383 40.7414 90.3963C40.7414 90.9265 39.5845 93.0471 38.9337 93.6889C38.9189 93.706 38.8951 93.7329 38.8644 93.7678L38.8627 93.7697C38.7423 93.9061 38.5179 94.1604 38.3119 94.4143C38.0515 94.7213 37.6611 95.1677 37.4441 95.391C37.2272 95.6142 36.8657 96.0048 36.6343 96.2699C35.5931 97.4697 31.1099 101.739 29.5481 103.022C29.1374 103.347 28.7268 103.702 28.5373 103.866L28.4634 103.929C27.7982 104.529 25.1083 106.385 24.5588 106.622C23.3874 107.124 22.5486 106.873 20.3793 105.38C19.8009 104.99 17.9642 103.553 17.5304 103.162C17.3713 103.008 16.6771 102.409 16.0119 101.837C14.45 100.511 10.5164 96.7163 9.57644 95.6421C9.17151 95.1817 8.75212 94.7213 8.63642 94.5957C8.52073 94.4701 8.31827 94.233 8.20257 94.0656C8.08688 93.9121 7.69641 93.4098 7.33487 92.9494C6.27916 91.652 6.03332 91.1497 6.03332 90.3963C6.03332 89.6848 6.2647 89.1825 7.10348 88.0804C7.2548 87.8829 7.43898 87.6378 7.59534 87.4298L7.59687 87.4277L7.60156 87.4215C7.69671 87.2949 7.78116 87.1825 7.84103 87.1038C8.00011 86.8945 8.26042 86.5736 8.4195 86.4062C8.57858 86.2388 9.07027 85.6947 9.50413 85.2064C9.93798 84.732 10.9214 83.7136 11.6734 82.9462L11.9418 82.6765L11.9438 82.6745C12.6708 81.9439 12.9945 81.6186 13.329 81.305C13.5971 81.0537 13.8723 80.8097 14.3677 80.3705L14.3686 80.3698L14.7827 80.0025C15.0864 79.7312 15.4054 79.4451 15.7006 79.1804L15.7192 79.1637L15.7211 79.162C16.1764 78.7537 16.5723 78.3986 16.7639 78.2306C17.3279 77.7144 19.8009 75.7891 20.5673 75.2589C20.7987 75.1055 21.1747 74.8265 21.3917 74.6451Z" fill="white"/>
<path d="M62.4344 106.162V75.1893H58.0235C54.625 75.1893 53.5838 75.2311 53.5404 75.3567C53.497 75.4544 53.4826 82.4161 53.497 90.8149L53.5404 106.092L57.9946 106.134L62.4344 106.162Z" fill="white"/>
<path d="M91.3578 81.3279V75.1893H67.0621V106.162H91.3578V100.023H75.8838V93.6052H90.2009V87.6061H75.8838V81.3279H91.3578Z" fill="white"/>
<path d="M120.643 81.2582V75.259L108.553 75.2172C101.915 75.2032 96.4194 75.2311 96.376 75.2869C96.3182 75.3288 96.2748 82.3045 96.2748 90.7731V106.162H120.715L120.686 103.12L120.643 100.093L112.949 100.051L105.241 100.023V93.6052H119.414V87.6061H105.241V81.3279L112.949 81.3L120.643 81.2582Z" fill="white"/>
<path d="M150 81.2582V75.259L137.823 75.2172L125.632 75.1893V106.162L137.823 106.134L150 106.092V100.093L142.234 100.051L134.454 100.023V93.6052H148.771V87.6061H134.454V81.3279L142.234 81.3L150 81.2582Z" fill="white"/>
<path fill-rule="evenodd" clip-rule="evenodd" d="M34.0169 108.952C34.3495 108.687 34.2917 108.031 33.9157 107.78C33.5975 107.557 32.6286 107.473 32.4551 107.654C32.3249 107.766 32.3249 109.998 32.4551 110.11C32.6286 110.291 32.9323 109.886 32.9323 109.454L32.9343 109.38C32.9379 109.237 32.9401 109.148 32.9732 109.135C33.0275 109.112 33.1645 109.292 33.5257 109.764L33.6409 109.914C34.0169 110.403 34.2628 110.179 34.0169 109.593C33.8289 109.175 33.8289 109.091 34.0169 108.952ZM32.9296 108.177C34.1274 108.006 33.7851 108.947 32.9296 108.776V108.177Z" fill="white"/>
<path fill-rule="evenodd" clip-rule="evenodd" d="M35.4633 109.859C35.9116 108.729 35.6079 107.654 34.6245 106.943C34.1328 106.594 32.7589 106.51 32.1371 106.775C30.5897 107.473 30.3294 109.636 31.6888 110.682C32.1805 111.073 32.3251 111.114 33.2796 111.114C34.1473 111.114 34.3642 111.073 34.6679 110.793C34.8559 110.626 35.0583 110.487 35.1162 110.487C35.174 110.487 35.3331 110.208 35.4633 109.859ZM31.703 109.789C31.1969 108.854 31.5874 107.696 32.5274 107.278C32.8744 107.124 33.2794 107.04 33.4384 107.096C34.5665 107.417 35.0292 108.045 34.9135 109.147C34.8268 110.11 34.2338 110.626 33.2505 110.626C32.4695 110.626 32.0212 110.375 31.703 109.789Z" fill="white"/>
</svg>
