<svg width="100%" height="90%" viewBox="-10 -12 275 116" fill="none" xmlns="http://www.w3.org/2000/svg">
<path d="M47.5742 55.4844H39.5889L38.1943 60H31.9688L40.834 35.8281H46.3125L55.2441 60H48.9854L47.5742 55.4844ZM40.9834 50.9854H46.1797L43.5732 42.6016L40.9834 50.9854ZM62.8477 51.7988V60H57.0205V35.8281H66.666C68.5143 35.8281 70.1468 36.1712 71.5635 36.8574C72.9912 37.5326 74.0924 38.501 74.8672 39.7627C75.653 41.0133 76.0459 42.4355 76.0459 44.0293C76.0459 46.3867 75.1992 48.2738 73.5059 49.6904C71.8236 51.096 69.5104 51.7988 66.5664 51.7988H62.8477ZM62.8477 47.2998H66.666C67.7949 47.2998 68.6527 47.0176 69.2393 46.4531C69.8369 45.8887 70.1357 45.0918 70.1357 44.0625C70.1357 42.9336 69.8314 42.0316 69.2227 41.3564C68.6139 40.6813 67.7839 40.3382 66.7324 40.3271H62.8477V47.2998ZM84.9941 51.7988V60H79.167V35.8281H88.8125C90.6608 35.8281 92.2933 36.1712 93.71 36.8574C95.1377 37.5326 96.2389 38.501 97.0137 39.7627C97.7995 41.0133 98.1924 42.4355 98.1924 44.0293C98.1924 46.3867 97.3457 48.2738 95.6523 49.6904C93.9701 51.096 91.6569 51.7988 88.7129 51.7988H84.9941ZM84.9941 47.2998H88.8125C89.9414 47.2998 90.7992 47.0176 91.3857 46.4531C91.9834 45.8887 92.2822 45.0918 92.2822 44.0625C92.2822 42.9336 91.9779 42.0316 91.3691 41.3564C90.7604 40.6813 89.9303 40.3382 88.8789 40.3271H84.9941V47.2998ZM107.141 55.5176H117.284V60H101.313V35.8281H107.141V55.5176ZM123.941 46.3203L128.391 35.8281H134.683L126.896 51.3174V60H120.986V51.3174L113.217 35.8281H119.476L123.941 46.3203ZM165.097 60H159.303L150.736 44.959V60H144.909V35.8281H150.736L159.286 50.8691V35.8281H165.097V60ZM189.252 48.4121C189.252 50.7695 188.815 52.8558 187.94 54.6709C187.066 56.486 185.821 57.8861 184.205 58.8711C182.6 59.8451 180.769 60.332 178.71 60.332C176.651 60.332 174.825 59.8617 173.231 58.9209C171.638 57.9691 170.393 56.6133 169.496 54.8535C168.611 53.0938 168.146 51.0739 168.102 48.7939V47.4326C168.102 45.0641 168.533 42.9779 169.396 41.1738C170.271 39.3587 171.516 37.9587 173.132 36.9736C174.759 35.9886 176.607 35.4961 178.677 35.4961C180.724 35.4961 182.55 35.9831 184.155 36.957C185.76 37.931 187.005 39.32 187.891 41.124C188.787 42.917 189.241 44.9756 189.252 47.2998V48.4121ZM183.325 47.3994C183.325 44.9977 182.921 43.1771 182.113 41.9375C181.316 40.6868 180.171 40.0615 178.677 40.0615C175.755 40.0615 174.211 42.2529 174.045 46.6357L174.028 48.4121C174.028 50.7806 174.421 52.6012 175.207 53.874C175.993 55.1468 177.16 55.7832 178.71 55.7832C180.182 55.7832 181.316 55.1579 182.113 53.9072C182.91 52.6566 183.314 50.8581 183.325 48.5117V47.3994ZM210.983 50.9854L213.756 35.8281H219.533L214.403 60H208.36L205.123 46.2207L201.952 60H195.926L190.779 35.8281H196.573L199.346 50.9854L202.666 35.8281H207.613L210.983 50.9854Z" fill="#10A2AE"/>
<path d="M48 7H204V-7H48V7ZM204 89H48V103H204V89ZM48 89C25.3563 89 7 70.6437 7 48H-7C-7 78.3757 17.6243 103 48 103V89ZM245 48C245 70.6437 226.644 89 204 89V103C234.376 103 259 78.3757 259 48H245ZM204 7C226.644 7 245 25.3563 245 48H259C259 17.6243 234.376 -7 204 -7V7ZM48 -7C17.6243 -7 -7 17.6243 -7 48H7C7 25.3563 25.3563 7 48 7V-7Z" fill="#10A2AE"/>
</svg>
