<svg width="50" height="50" viewBox="0 0 50 50" fill="none" xmlns="http://www.w3.org/2000/svg">
<path d="M25 50C11.1895 50 0 38.8105 0 25C0 11.1895 11.1895 0 25 0C38.8105 0 50 11.1895 50 25C50 38.8105 38.8105 50 25 50ZM13.5181 26.7137L27.1774 40.373C28.125 41.3206 29.6573 41.3206 30.5948 40.373L32.3085 38.6593C33.256 37.7117 33.256 36.1794 32.3085 35.2419L22.0665 25L32.3085 14.7581C33.256 13.8105 33.256 12.2782 32.3085 11.3407L30.5948 9.62701C29.6472 8.67944 28.1149 8.67944 27.1774 9.62701L13.5181 23.2863C12.5706 24.2339 12.5706 25.7661 13.5181 26.7137Z" fill="#252525"/>
</svg>
