<svg width="100%" height="100%" viewBox="0 0 50 50" fill="none" xmlns="http://www.w3.org/2000/svg">
<path d="M25 0C38.8105 0 50 11.1895 50 25C50 38.8105 38.8105 50 25 50C11.1895 50 0 38.8105 0 25C0 11.1895 11.1895 0 25 0ZM36.4819 23.2863L22.8226 9.62702C21.875 8.67944 20.3427 8.67944 19.4052 9.62702L17.6915 11.3407C16.744 12.2883 16.744 13.8206 17.6915 14.7581L27.9335 25L17.6915 35.2419C16.744 36.1895 16.744 37.7218 17.6915 38.6593L19.4052 40.373C20.3528 41.3206 21.8851 41.3206 22.8226 40.373L36.4819 26.7137C37.4294 25.7661 37.4294 24.2339 36.4819 23.2863Z" fill="#252525"/>
</svg>
