<svg width="100%" height="100%" viewBox="0 0 283 287" fill="none" xmlns="http://www.w3.org/2000/svg">
<path fill-rule="evenodd" clip-rule="evenodd" d="M286 0H0V288H72V266H214V288H286V0ZM18 29C24.0751 29 29 24.0751 29 18C29 11.9249 24.0751 7 18 7C11.9249 7 7 11.9249 7 18C7 24.0751 11.9249 29 18 29ZM29 269C29 275.075 24.0751 280 18 280C11.9249 280 7 275.075 7 269C7 262.925 11.9249 258 18 258C24.0751 258 29 262.925 29 269ZM269 29C275.075 29 280 24.0751 280 18C280 11.9249 275.075 7 269 7C262.925 7 258 11.9249 258 18C258 24.0751 262.925 29 269 29ZM280 269C280 275.075 275.075 280 269 280C262.925 280 258 275.075 258 269C258 262.925 262.925 258 269 258C275.075 258 280 262.925 280 269Z" fill="#0193A0"/>
<path fill-rule="evenodd" clip-rule="evenodd" d="M18 286C27.3888 286 35 278.389 35 269C35 259.611 27.3888 252 18 252C8.61116 252 1 259.611 1 269C1 278.389 8.61116 286 18 286ZM18 280C24.0751 280 29 275.075 29 269C29 262.925 24.0751 258 18 258C11.9249 258 7 262.925 7 269C7 275.075 11.9249 280 18 280Z" fill="#ECC98A"/>
<path fill-rule="evenodd" clip-rule="evenodd" d="M269 286C278.389 286 286 278.389 286 269C286 259.611 278.389 252 269 252C259.611 252 252 259.611 252 269C252 278.389 259.611 286 269 286ZM269 280C275.075 280 280 275.075 280 269C280 262.925 275.075 258 269 258C262.925 258 258 262.925 258 269C258 275.075 262.925 280 269 280Z" fill="#ECC98A"/>
<path fill-rule="evenodd" clip-rule="evenodd" d="M18 35C27.3888 35 35 27.3888 35 18C35 8.61116 27.3888 1 18 1C8.61116 1 1 8.61116 1 18C1 27.3888 8.61116 35 18 35ZM18 29C24.0751 29 29 24.0751 29 18C29 11.9249 24.0751 7 18 7C11.9249 7 7 11.9249 7 18C7 24.0751 11.9249 29 18 29Z" fill="#ECC98A"/>
<path fill-rule="evenodd" clip-rule="evenodd" d="M269 35C278.389 35 286 27.3888 286 18C286 8.61116 278.389 1 269 1C259.611 1 252 8.61116 252 18C252 27.3888 259.611 35 269 35ZM269 29C275.075 29 280 24.0751 280 18C280 11.9249 275.075 7 269 7C262.925 7 258 11.9249 258 18C258 24.0751 262.925 29 269 29Z" fill="#ECC98A"/>
<path d="M103 26C107.418 26 111 22.4183 111 18C111 13.5817 107.418 10 103 10C98.5817 10 95 13.5817 95 18C95 22.4183 98.5817 26 103 26Z" fill="#ECC98A"/>
<path d="M103 21C104.657 21 106 19.6569 106 18C106 16.3431 104.657 15 103 15C101.343 15 100 16.3431 100 18C100 19.6569 101.343 21 103 21Z" fill="#252525"/>
<path d="M130 26C134.418 26 138 22.4183 138 18C138 13.5817 134.418 10 130 10C125.582 10 122 13.5817 122 18C122 22.4183 125.582 26 130 26Z" fill="#ECC98A"/>
<path d="M130 21C131.657 21 133 19.6569 133 18C133 16.3431 131.657 15 130 15C128.343 15 127 16.3431 127 18C127 19.6569 128.343 21 130 21Z" fill="#252525"/>
<path d="M157 26C161.418 26 165 22.4183 165 18C165 13.5817 161.418 10 157 10C152.582 10 149 13.5817 149 18C149 22.4183 152.582 26 157 26Z" fill="#ECC98A"/>
<path d="M157 21C158.657 21 160 19.6569 160 18C160 16.3431 158.657 15 157 15C155.343 15 154 16.3431 154 18C154 19.6569 155.343 21 157 21Z" fill="#252525"/>
<path d="M184 26C188.418 26 192 22.4183 192 18C192 13.5817 188.418 10 184 10C179.582 10 176 13.5817 176 18C176 22.4183 179.582 26 184 26Z" fill="#ECC98A"/>
<path d="M184 21C185.657 21 187 19.6569 187 18C187 16.3431 185.657 15 184 15C182.343 15 181 16.3431 181 18C181 19.6569 182.343 21 184 21Z" fill="#252525"/>
<path d="M286 41H0V198H286V41Z" fill="#252525"/>
<path d="M286 198H0V209H286V198Z" fill="#3C3C3C" fill-opacity="0.68"/>
<path fill-rule="evenodd" clip-rule="evenodd" d="M88.5 255C83.8056 255 80 258.806 80 263.5C80 264.012 80.0452 264.513 80.1319 265H80V282H208V265H207.868C207.955 264.513 208 264.012 208 263.5C208 258.806 204.194 255 199.5 255H88.5Z" fill="#F0B310"/>
<path fill-rule="evenodd" clip-rule="evenodd" d="M143 209H75V243.013C75.1656 243.004 75.3323 243 75.5 243C80.579 243 84.7271 246.986 84.9871 252H85V282H201V252H201.013C201.273 246.986 205.421 243 210.5 243C210.668 243 210.834 243.004 211 243.013V209H143Z" fill="#252525"/>
<path d="M274 49H12V188H274V49Z" fill="#C4C4C4"/>
</svg>
