<svg width="100%" height="100%" viewBox="0 0 518 189" fill="none" xmlns="http://www.w3.org/2000/svg">
<mask id="path-1-outside-1" maskUnits="userSpaceOnUse" x="0" y="67" width="120" height="72" fill="black">
<rect fill="white" y="67" width="120" height="72"/>
<path fill-rule="evenodd" clip-rule="evenodd" d="M30.831 70H3V78H30.831L78.5 117H109.155C109.983 117.625 111.036 118 112.183 118C114.843 118 117 115.985 117 113.5C117 111.015 114.843 109 112.183 109C111.387 109 110.636 109.18 109.974 109.5H80.0704L30.831 70ZM29.7606 88H3V96H29.7606L79 135H108.085C108.912 135.625 109.966 136 111.113 136C113.773 136 115.93 133.985 115.93 131.5C115.93 129.015 113.773 127 111.113 127C110.316 127 109.565 127.18 108.904 127.5H79L29.7606 88Z"/>
</mask>
<path fill-rule="evenodd" clip-rule="evenodd" d="M30.831 70H3V78H30.831L78.5 117H109.155C109.983 117.625 111.036 118 112.183 118C114.843 118 117 115.985 117 113.5C117 111.015 114.843 109 112.183 109C111.387 109 110.636 109.18 109.974 109.5H80.0704L30.831 70ZM29.7606 88H3V96H29.7606L79 135H108.085C108.912 135.625 109.966 136 111.113 136C113.773 136 115.93 133.985 115.93 131.5C115.93 129.015 113.773 127 111.113 127C110.316 127 109.565 127.18 108.904 127.5H79L29.7606 88Z" fill="#2A9EB4"/>
<path d="M3 70V67H0V70H3ZM30.831 70L32.7082 67.6599L31.8856 67H30.831V70ZM3 78H0V81H3V78ZM30.831 78L32.7306 75.6781L31.9018 75H30.831V78ZM78.5 117L76.6003 119.322L77.4292 120H78.5V117ZM109.155 117L110.964 114.607L110.162 114H109.155V117ZM109.974 109.5V112.5H110.661L111.279 112.201L109.974 109.5ZM80.0704 109.5L78.1932 111.84L79.0158 112.5H80.0704V109.5ZM3 88V85H0V88H3ZM29.7606 88L31.6378 85.6599L30.8152 85H29.7606V88ZM3 96H0V99H3V96ZM29.7606 96L31.6232 93.6483L30.8047 93H29.7606V96ZM79 135L77.1373 137.352L77.9558 138H79V135ZM108.085 135L109.894 132.607L109.091 132H108.085V135ZM108.904 127.5V130.5H109.59L110.208 130.201L108.904 127.5ZM79 127.5L77.1228 129.84L77.9454 130.5H79V127.5ZM3 73H30.831V67H3V73ZM6 78V70H0V78H6ZM30.831 75H3V81H30.831V75ZM80.3997 114.678L32.7306 75.6781L28.9313 80.3219L76.6003 119.322L80.3997 114.678ZM109.155 114H78.5V120H109.155V114ZM112.183 115C111.694 115 111.275 114.842 110.964 114.607L107.346 119.393C108.69 120.409 110.378 121 112.183 121V115ZM114 113.5C114 114.139 113.382 115 112.183 115V121C116.305 121 120 117.831 120 113.5H114ZM112.183 112C113.382 112 114 112.861 114 113.5H120C120 109.169 116.305 106 112.183 106V112ZM111.279 112.201C111.537 112.077 111.843 112 112.183 112V106C110.931 106 109.734 106.284 108.67 106.799L111.279 112.201ZM80.0704 112.5H109.974V106.5H80.0704V112.5ZM28.9538 72.3401L78.1932 111.84L81.9476 107.16L32.7082 67.6599L28.9538 72.3401ZM3 91H29.7606V85H3V91ZM6 96V88H0V96H6ZM29.7606 93H3V99H29.7606V93ZM80.8627 132.648L31.6232 93.6483L27.8979 98.3517L77.1373 137.352L80.8627 132.648ZM108.085 132H79V138H108.085V132ZM111.113 133C110.624 133 110.204 132.842 109.894 132.607L106.276 137.393C107.62 138.409 109.307 139 111.113 139V133ZM112.93 131.5C112.93 132.139 112.312 133 111.113 133V139C115.234 139 118.93 135.831 118.93 131.5H112.93ZM111.113 130C112.312 130 112.93 130.861 112.93 131.5H118.93C118.93 127.169 115.234 124 111.113 124V130ZM110.208 130.201C110.467 130.077 110.772 130 111.113 130V124C109.861 124 108.664 124.284 107.599 124.799L110.208 130.201ZM79 130.5H108.904V124.5H79V130.5ZM27.8833 90.3401L77.1228 129.84L80.8772 125.16L31.6378 85.6599L27.8833 90.3401Z" fill="#0193A0" mask="url(#path-1-outside-1)"/>
<mask id="path-3-outside-2" maskUnits="userSpaceOnUse" x="0" y="105" width="120" height="72" fill="black">
<rect fill="white" y="105" width="120" height="72"/>
<path fill-rule="evenodd" clip-rule="evenodd" d="M30.831 108H3V116H30.831L78.5 155H109.155C109.983 155.625 111.036 156 112.183 156C114.843 156 117 153.985 117 151.5C117 149.015 114.843 147 112.183 147C111.387 147 110.636 147.18 109.974 147.5H80.0704L30.831 108ZM29.7606 126H3V134H29.7606L79 173H108.085C108.912 173.625 109.966 174 111.113 174C113.773 174 115.93 171.985 115.93 169.5C115.93 167.015 113.773 165 111.113 165C110.316 165 109.565 165.18 108.904 165.5H79L29.7606 126Z"/>
</mask>
<path fill-rule="evenodd" clip-rule="evenodd" d="M30.831 108H3V116H30.831L78.5 155H109.155C109.983 155.625 111.036 156 112.183 156C114.843 156 117 153.985 117 151.5C117 149.015 114.843 147 112.183 147C111.387 147 110.636 147.18 109.974 147.5H80.0704L30.831 108ZM29.7606 126H3V134H29.7606L79 173H108.085C108.912 173.625 109.966 174 111.113 174C113.773 174 115.93 171.985 115.93 169.5C115.93 167.015 113.773 165 111.113 165C110.316 165 109.565 165.18 108.904 165.5H79L29.7606 126Z" fill="#2A9EB4"/>
<path d="M3 108V105H0V108H3ZM30.831 108L32.7082 105.66L31.8856 105H30.831V108ZM3 116H0V119H3V116ZM30.831 116L32.7306 113.678L31.9018 113H30.831V116ZM78.5 155L76.6003 157.322L77.4292 158H78.5V155ZM109.155 155L110.964 152.607L110.162 152H109.155V155ZM109.974 147.5V150.5H110.661L111.279 150.201L109.974 147.5ZM80.0704 147.5L78.1932 149.84L79.0158 150.5H80.0704V147.5ZM3 126V123H0V126H3ZM29.7606 126L31.6378 123.66L30.8152 123H29.7606V126ZM3 134H0V137H3V134ZM29.7606 134L31.6232 131.648L30.8047 131H29.7606V134ZM79 173L77.1373 175.352L77.9558 176H79V173ZM108.085 173L109.894 170.607L109.091 170H108.085V173ZM108.904 165.5V168.5H109.59L110.208 168.201L108.904 165.5ZM79 165.5L77.1228 167.84L77.9454 168.5H79V165.5ZM3 111H30.831V105H3V111ZM6 116V108H0V116H6ZM30.831 113H3V119H30.831V113ZM80.3997 152.678L32.7306 113.678L28.9313 118.322L76.6003 157.322L80.3997 152.678ZM109.155 152H78.5V158H109.155V152ZM112.183 153C111.694 153 111.275 152.842 110.964 152.607L107.346 157.393C108.69 158.409 110.378 159 112.183 159V153ZM114 151.5C114 152.139 113.382 153 112.183 153V159C116.305 159 120 155.831 120 151.5H114ZM112.183 150C113.382 150 114 150.861 114 151.5H120C120 147.169 116.305 144 112.183 144V150ZM111.279 150.201C111.537 150.077 111.843 150 112.183 150V144C110.931 144 109.734 144.284 108.67 144.799L111.279 150.201ZM80.0704 150.5H109.974V144.5H80.0704V150.5ZM28.9538 110.34L78.1932 149.84L81.9476 145.16L32.7082 105.66L28.9538 110.34ZM3 129H29.7606V123H3V129ZM6 134V126H0V134H6ZM29.7606 131H3V137H29.7606V131ZM80.8627 170.648L31.6232 131.648L27.8979 136.352L77.1373 175.352L80.8627 170.648ZM108.085 170H79V176H108.085V170ZM111.113 171C110.624 171 110.204 170.842 109.894 170.607L106.276 175.393C107.62 176.409 109.307 177 111.113 177V171ZM112.93 169.5C112.93 170.139 112.312 171 111.113 171V177C115.234 177 118.93 173.831 118.93 169.5H112.93ZM111.113 168C112.312 168 112.93 168.861 112.93 169.5H118.93C118.93 165.169 115.234 162 111.113 162V168ZM110.208 168.201C110.467 168.077 110.772 168 111.113 168V162C109.861 162 108.664 162.284 107.599 162.799L110.208 168.201ZM79 168.5H108.904V162.5H79V168.5ZM27.8833 128.34L77.1228 167.84L80.8772 163.16L31.6378 123.66L27.8833 128.34Z" fill="#0193A0" mask="url(#path-3-outside-2)"/>
<path d="M113 137.5C116.314 137.5 119 134.814 119 131.5C119 128.186 116.314 125.5 113 125.5C109.686 125.5 107 128.186 107 131.5C107 134.814 109.686 137.5 113 137.5Z" fill="black" stroke="#0193A0" stroke-width="3"/>
<path d="M112.5 157.5C115.814 157.5 118.5 154.814 118.5 151.5C118.5 148.186 115.814 145.5 112.5 145.5C109.186 145.5 106.5 148.186 106.5 151.5C106.5 154.814 109.186 157.5 112.5 157.5Z" fill="black" stroke="#0193A0" stroke-width="3"/>
<mask id="path-7-outside-3" maskUnits="userSpaceOnUse" x="151" y="108" width="122" height="69" fill="black">
<rect fill="white" x="151" y="108" width="122" height="69"/>
<path fill-rule="evenodd" clip-rule="evenodd" d="M155 169.5C155 167.015 157.271 165 160.073 165C160.912 165 161.703 165.18 162.4 165.5H178L196.5 146H261.737C262.609 145.375 263.718 145 264.926 145C267.729 145 270 147.015 270 149.5C270 151.985 267.729 154 264.926 154C263.424 154 262.074 153.421 261.145 152.5H200.025L180 173.5H162.4C161.703 173.82 160.912 174 160.073 174C157.271 174 155 171.985 155 169.5ZM264.773 129C263.909 129 263.094 129.18 262.376 129.5H196.818L180.556 112H163.513C162.615 111.375 161.472 111 160.227 111C157.34 111 155 113.015 155 115.5C155 117.985 157.34 120 160.227 120C161.091 120 161.906 119.82 162.624 119.5H176.49L193.333 137.5H262.376C263.094 137.82 263.909 138 264.773 138C267.66 138 270 135.985 270 133.5C270 131.015 267.66 129 264.773 129Z"/>
</mask>
<path fill-rule="evenodd" clip-rule="evenodd" d="M155 169.5C155 167.015 157.271 165 160.073 165C160.912 165 161.703 165.18 162.4 165.5H178L196.5 146H261.737C262.609 145.375 263.718 145 264.926 145C267.729 145 270 147.015 270 149.5C270 151.985 267.729 154 264.926 154C263.424 154 262.074 153.421 261.145 152.5H200.025L180 173.5H162.4C161.703 173.82 160.912 174 160.073 174C157.271 174 155 171.985 155 169.5ZM264.773 129C263.909 129 263.094 129.18 262.376 129.5H196.818L180.556 112H163.513C162.615 111.375 161.472 111 160.227 111C157.34 111 155 113.015 155 115.5C155 117.985 157.34 120 160.227 120C161.091 120 161.906 119.82 162.624 119.5H176.49L193.333 137.5H262.376C263.094 137.82 263.909 138 264.773 138C267.66 138 270 135.985 270 133.5C270 131.015 267.66 129 264.773 129Z" fill="#2A9EB4"/>
<path d="M162.4 165.5L161.15 168.227L161.745 168.5H162.4V165.5ZM178 165.5V168.5H179.289L180.176 167.565L178 165.5ZM196.5 146V143H195.211L194.324 143.935L196.5 146ZM261.737 146V149H262.702L263.487 148.437L261.737 146ZM261.145 152.5L263.257 150.369L262.38 149.5H261.145V152.5ZM200.025 152.5V149.5H198.74L197.853 150.43L200.025 152.5ZM180 173.5V176.5H181.285L182.171 175.57L180 173.5ZM162.4 173.5V170.5H161.745L161.15 170.773L162.4 173.5ZM262.376 129.5V132.5H263.013L263.595 132.241L262.376 129.5ZM196.818 129.5L194.621 131.542L195.511 132.5H196.818V129.5ZM180.556 112L182.753 109.958L181.863 109H180.556V112ZM163.513 112L161.798 114.462L162.571 115H163.513V112ZM162.624 119.5V116.5H161.987L161.405 116.759L162.624 119.5ZM176.49 119.5L178.68 117.45L177.791 116.5H176.49V119.5ZM193.333 137.5L191.143 139.55L192.032 140.5H193.333V137.5ZM262.376 137.5L263.595 134.759L263.013 134.5H262.376V137.5ZM160.073 162C155.963 162 152 165.03 152 169.5H158C158 169 158.58 168 160.073 168V162ZM163.65 162.773C162.561 162.273 161.343 162 160.073 162V168C160.481 168 160.845 168.087 161.15 168.227L163.65 162.773ZM178 162.5H162.4V168.5H178V162.5ZM194.324 143.935L175.824 163.435L180.176 167.565L198.676 148.065L194.324 143.935ZM261.737 143H196.5V149H261.737V143ZM264.926 142C263.098 142 261.375 142.567 259.988 143.563L263.487 148.437C263.842 148.182 264.338 148 264.926 148V142ZM273 149.5C273 145.03 269.037 142 264.926 142V148C266.42 148 267 149 267 149.5H273ZM264.926 157C269.037 157 273 153.97 273 149.5H267C267 150 266.42 151 264.926 151V157ZM259.033 154.631C260.541 156.125 262.657 157 264.926 157V151C264.191 151 263.607 150.716 263.257 150.369L259.033 154.631ZM200.025 155.5H261.145V149.5H200.025V155.5ZM182.171 175.57L202.196 154.57L197.853 150.43L177.829 171.43L182.171 175.57ZM162.4 176.5H180V170.5H162.4V176.5ZM160.073 177C161.343 177 162.561 176.727 163.65 176.227L161.15 170.773C160.845 170.913 160.481 171 160.073 171V177ZM152 169.5C152 173.97 155.963 177 160.073 177V171C158.58 171 158 170 158 169.5H152ZM263.595 132.241C263.927 132.093 264.326 132 264.773 132V126C263.491 126 262.26 126.268 261.156 126.759L263.595 132.241ZM196.818 132.5H262.376V126.5H196.818V132.5ZM178.358 114.042L194.621 131.542L199.016 127.458L182.753 109.958L178.358 114.042ZM163.513 115H180.556V109H163.513V115ZM160.227 114C160.873 114 161.415 114.195 161.798 114.462L165.228 109.538C163.816 108.555 162.071 108 160.227 108V114ZM158 115.5C158 115.245 158.113 114.915 158.488 114.592C158.87 114.263 159.475 114 160.227 114V108C156.121 108 152 110.952 152 115.5H158ZM160.227 117C159.475 117 158.87 116.737 158.488 116.408C158.113 116.085 158 115.755 158 115.5H152C152 120.048 156.121 123 160.227 123V117ZM161.405 116.759C161.073 116.907 160.673 117 160.227 117V123C161.509 123 162.74 122.732 163.844 122.241L161.405 116.759ZM176.49 116.5H162.624V122.5H176.49V116.5ZM195.524 135.45L178.68 117.45L174.299 121.55L191.143 139.55L195.524 135.45ZM262.376 134.5H193.333V140.5H262.376V134.5ZM264.773 135C264.326 135 263.927 134.907 263.595 134.759L261.156 140.241C262.26 140.732 263.491 141 264.773 141V135ZM267 133.5C267 133.755 266.887 134.085 266.512 134.408C266.13 134.737 265.524 135 264.773 135V141C268.879 141 273 138.048 273 133.5H267ZM264.773 132C265.524 132 266.13 132.263 266.512 132.592C266.887 132.915 267 133.245 267 133.5H273C273 128.952 268.879 126 264.773 126V132Z" fill="#0193A0" mask="url(#path-7-outside-3)"/>
<g clip-path="url(#clip0)">
<path fill-rule="evenodd" clip-rule="evenodd" d="M117.914 180.46C114.095 180.46 111 175.656 111 169.73C111 163.804 114.095 159 117.914 159C121.732 159 124.827 163.804 124.827 169.73C124.827 175.656 121.732 180.46 117.914 180.46Z" fill="#C9CACC"/>
<path fill-rule="evenodd" clip-rule="evenodd" d="M154.086 180.46C150.268 180.46 147.173 175.656 147.173 169.73C147.173 163.804 150.268 159 154.086 159C157.905 159 161 163.804 161 169.73C161 175.656 157.905 180.46 154.086 180.46Z" fill="#C9CACC"/>
<path d="M154.584 161.434H117.416V178.137H154.584V161.434Z" fill="#ACAAAE"/>
<path d="M144.186 161.434H127.814V178.027H144.186V161.434Z" fill="#907966"/>
</g>
<mask id="path-13-outside-4" maskUnits="userSpaceOnUse" x="72" y="0.5" width="75" height="87" fill="black">
<rect fill="white" x="72" y="0.5" width="75" height="87"/>
<path fill-rule="evenodd" clip-rule="evenodd" d="M76 79.5652L78.5 83H84L123 40.8012V11.1921C123.625 10.4336 124 9.46783 124 8.41615C124 5.97718 121.985 4 119.5 4C117.015 4 115 5.97718 115 8.41615C115 9.14611 115.18 9.8347 115.5 10.4413V37.8571L76 79.5652ZM135.5 38.5L96 81L98 84.5H104L143 41.5V11.3287C143.625 10.5558 144 9.57165 144 8.5C144 6.01472 141.985 4 139.5 4C137.015 4 135 6.01472 135 8.5C135 9.24381 135.18 9.94548 135.5 10.5636V38.5Z"/>
</mask>
<path fill-rule="evenodd" clip-rule="evenodd" d="M76 79.5652L78.5 83H84L123 40.8012V11.1921C123.625 10.4336 124 9.46783 124 8.41615C124 5.97718 121.985 4 119.5 4C117.015 4 115 5.97718 115 8.41615C115 9.14611 115.18 9.8347 115.5 10.4413V37.8571L76 79.5652ZM135.5 38.5L96 81L98 84.5H104L143 41.5V11.3287C143.625 10.5558 144 9.57165 144 8.5C144 6.01472 141.985 4 139.5 4C137.015 4 135 6.01472 135 8.5C135 9.24381 135.18 9.94548 135.5 10.5636V38.5Z" fill="#2A9EB4"/>
<path d="M78.5 83L76.0745 84.7654L76.973 86H78.5V83ZM76 79.5652L73.8218 77.5023L72.1064 79.3136L73.5745 81.3306L76 79.5652ZM84 83V86H85.3124L86.2032 85.0362L84 83ZM123 40.8012L125.203 42.8374L126 41.9752V40.8012H123ZM123 11.1921L120.685 9.28356L120 10.1148V11.1921H123ZM115.5 10.4413H118.5V9.69947L118.154 9.04313L115.5 10.4413ZM115.5 37.8571L117.678 39.92L118.5 39.0523V37.8571H115.5ZM96 81L93.8025 78.9577L92.3009 80.5733L93.3953 82.4884L96 81ZM135.5 38.5L137.697 40.5423L138.5 39.6789V38.5H135.5ZM98 84.5L95.3953 85.9884L96.259 87.5H98V84.5ZM104 84.5V87.5H105.329L106.222 86.5154L104 84.5ZM143 41.5L145.222 43.5154L146 42.6578V41.5H143ZM143 11.3287L140.668 9.44154L140 10.2669V11.3287H143ZM135.5 10.5636H138.5V9.83404L138.165 9.18595L135.5 10.5636ZM80.9255 81.2346L78.4255 77.7998L73.5745 81.3306L76.0745 84.7654L80.9255 81.2346ZM84 80H78.5V86H84V80ZM120.797 38.7651L81.7968 80.9638L86.2032 85.0362L125.203 42.8374L120.797 38.7651ZM120 11.1921V40.8012H126V11.1921H120ZM121 8.41615C121 8.74071 120.888 9.03829 120.685 9.28356L125.315 13.1007C126.363 11.829 127 10.1949 127 8.41615H121ZM119.5 7C120.382 7 121 7.68698 121 8.41615H127C127 4.26738 123.589 1 119.5 1V7ZM118 8.41615C118 7.68698 118.618 7 119.5 7V1C115.411 1 112 4.26738 112 8.41615H118ZM118.154 9.04313C118.055 8.85561 118 8.64552 118 8.41615H112C112 9.64671 112.305 10.8138 112.846 11.8395L118.154 9.04313ZM118.5 37.8571V10.4413H112.5V37.8571H118.5ZM78.1782 81.6281L117.678 39.92L113.322 35.7943L73.8218 77.5023L78.1782 81.6281ZM98.1975 83.0423L137.697 40.5423L133.303 36.4577L93.8025 78.9577L98.1975 83.0423ZM100.605 83.0116L98.6047 79.5116L93.3953 82.4884L95.3953 85.9884L100.605 83.0116ZM104 81.5H98V87.5H104V81.5ZM140.778 39.4846L101.778 82.4846L106.222 86.5154L145.222 43.5154L140.778 39.4846ZM140 11.3287V41.5H146V11.3287H140ZM141 8.5C141 8.86005 140.877 9.18322 140.668 9.44154L145.332 13.2158C146.374 11.9284 147 10.2832 147 8.5H141ZM139.5 7C140.328 7 141 7.67157 141 8.5H147C147 4.35786 143.642 1 139.5 1V7ZM138 8.5C138 7.67157 138.672 7 139.5 7V1C135.358 1 132 4.35786 132 8.5H138ZM138.165 9.18595C138.06 8.98366 138 8.75327 138 8.5H132C132 9.73436 132.301 10.9073 132.835 11.9412L138.165 9.18595ZM138.5 38.5V10.5636H132.5V38.5L138.5 38.5Z" fill="#0193A0" mask="url(#path-13-outside-4)"/>
<path d="M179.283 47.7C181.1 47.7 182.686 48.0093 184.039 48.628C185.392 49.2467 186.427 50.0877 187.142 51.151C187.857 52.2143 188.215 53.4033 188.215 54.718C188.215 56.8833 187.538 58.5847 186.185 59.822C184.832 61.04 182.531 61.649 179.283 61.649H175.455V67.217C175.455 67.4297 175.378 67.6133 175.223 67.768C175.068 67.9227 174.885 68 174.672 68H168.437C168.224 68 168.041 67.9227 167.886 67.768C167.731 67.6133 167.654 67.4297 167.654 67.217V48.483C167.654 48.2703 167.731 48.0867 167.886 47.932C168.041 47.7773 168.224 47.7 168.437 47.7H179.283ZM179.167 56.284C179.631 56.284 179.998 56.1487 180.269 55.878C180.54 55.588 180.675 55.211 180.675 54.747C180.675 54.2637 180.54 53.8673 180.269 53.558C179.998 53.2487 179.631 53.094 179.167 53.094H175.484V56.284H179.167ZM196.788 67.014C196.536 67.6713 196.101 68 195.483 68H190.002C189.828 68 189.673 67.942 189.538 67.826C189.422 67.6907 189.364 67.536 189.364 67.362L189.393 67.188L195.715 48.657C195.792 48.4057 195.937 48.1833 196.15 47.99C196.362 47.7967 196.652 47.7 197.02 47.7H205.082C205.449 47.7 205.739 47.7967 205.952 47.99C206.164 48.1833 206.309 48.4057 206.387 48.657L212.709 67.188L212.738 67.362C212.738 67.536 212.67 67.6907 212.535 67.826C212.419 67.942 212.274 68 212.1 68H206.619C206 68 205.565 67.6713 205.314 67.014L204.589 64.984H197.513L196.788 67.014ZM201.051 53.297L198.992 59.329H203.11L201.051 53.297ZM237.115 67.101C237.154 67.1783 237.173 67.2653 237.173 67.362C237.173 67.536 237.106 67.6907 236.97 67.826C236.854 67.942 236.709 68 236.535 68H229.952C229.682 68 229.43 67.9323 229.198 67.797C228.986 67.6617 228.831 67.4877 228.734 67.275L226.182 61.533H223.746V67.217C223.746 67.4297 223.669 67.6133 223.514 67.768C223.36 67.9227 223.176 68 222.963 68H216.699C216.487 68 216.303 67.9227 216.148 67.768C215.994 67.6133 215.916 67.4297 215.916 67.217V48.483C215.916 48.2703 215.994 48.0867 216.148 47.932C216.303 47.7773 216.487 47.7 216.699 47.7H227.98C229.72 47.7 231.238 47.9803 232.533 48.541C233.848 49.1017 234.853 49.9137 235.549 50.977C236.245 52.0403 236.593 53.2873 236.593 54.718C236.593 57.3473 235.578 59.2517 233.548 60.431L237.115 67.101ZM227.371 56.168C227.797 56.168 228.125 56.0327 228.357 55.762C228.589 55.472 228.705 55.1143 228.705 54.689C228.705 54.2637 228.589 53.8963 228.357 53.587C228.145 53.2583 227.816 53.094 227.371 53.094H223.746V56.168H227.371ZM260.246 47.7C260.459 47.7 260.642 47.7773 260.797 47.932C260.952 48.0867 261.029 48.2703 261.029 48.483V53.152C261.029 53.3647 260.952 53.5483 260.797 53.703C260.642 53.8577 260.459 53.935 260.246 53.935H254.011V67.217C254.011 67.4297 253.934 67.6133 253.779 67.768C253.624 67.9227 253.441 68 253.228 68H247.254C247.041 68 246.858 67.9227 246.703 67.768C246.548 67.6133 246.471 67.4297 246.471 67.217V53.935H240.236C240.023 53.935 239.84 53.8577 239.685 53.703C239.53 53.5483 239.453 53.3647 239.453 53.152V48.483C239.453 48.2703 239.53 48.0867 239.685 47.932C239.84 47.7773 240.023 47.7 240.236 47.7H260.246ZM278.824 62.055H284.073C284.285 62.055 284.469 62.1323 284.624 62.287C284.778 62.4417 284.856 62.6253 284.856 62.838V67.217C284.856 67.4297 284.778 67.6133 284.624 67.768C284.469 67.9227 284.285 68 284.073 68H265.687C265.474 68 265.29 67.9227 265.136 67.768C264.981 67.6133 264.904 67.4297 264.904 67.217V62.838C264.904 62.6253 264.981 62.4417 265.136 62.287C265.29 62.1323 265.474 62.055 265.687 62.055H270.994V53.645H265.687C265.474 53.645 265.29 53.5677 265.136 53.413C264.981 53.2583 264.904 53.0747 264.904 52.862V48.483C264.904 48.2703 264.981 48.0867 265.136 47.932C265.29 47.7773 265.474 47.7 265.687 47.7H284.073C284.285 47.7 284.469 47.7773 284.624 47.932C284.778 48.0867 284.856 48.2703 284.856 48.483V52.862C284.856 53.0747 284.778 53.2583 284.624 53.413C284.469 53.5677 284.285 53.645 284.073 53.645H278.824V62.055ZM296.85 60.17C296.85 60.9627 297.111 61.5717 297.633 61.997C298.175 62.4223 298.9 62.635 299.808 62.635C300.62 62.635 301.22 62.4997 301.606 62.229C301.993 61.9583 302.322 61.5523 302.592 61.011C302.844 60.5083 303.182 60.257 303.607 60.257H309.871C310.045 60.257 310.19 60.3247 310.306 60.46C310.442 60.576 310.509 60.721 310.509 60.895C310.509 62.0743 310.113 63.2343 309.32 64.375C308.528 65.4963 307.319 66.434 305.695 67.188C304.091 67.9227 302.128 68.29 299.808 68.29C297.74 68.29 295.893 67.9807 294.269 67.362C292.665 66.724 291.389 65.7573 290.441 64.462C289.494 63.1473 289.02 61.5137 289.02 59.561V56.139C289.02 54.1863 289.494 52.5623 290.441 51.267C291.389 49.9523 292.665 48.9857 294.269 48.367C295.893 47.729 297.74 47.41 299.808 47.41C302.128 47.41 304.091 47.787 305.695 48.541C307.319 49.2757 308.528 50.2133 309.32 51.354C310.113 52.4753 310.509 53.6257 310.509 54.805C310.509 54.979 310.442 55.1337 310.306 55.269C310.19 55.385 310.045 55.443 309.871 55.443H303.607C303.182 55.443 302.844 55.1917 302.592 54.689C302.322 54.1477 301.993 53.7417 301.606 53.471C301.22 53.2003 300.62 53.065 299.808 53.065C298.9 53.065 298.175 53.2777 297.633 53.703C297.111 54.1283 296.85 54.7373 296.85 55.53V60.17ZM328.101 62.055H333.35C333.563 62.055 333.746 62.1323 333.901 62.287C334.056 62.4417 334.133 62.6253 334.133 62.838V67.217C334.133 67.4297 334.056 67.6133 333.901 67.768C333.746 67.9227 333.563 68 333.35 68H314.964C314.751 68 314.568 67.9227 314.413 67.768C314.258 67.6133 314.181 67.4297 314.181 67.217V62.838C314.181 62.6253 314.258 62.4417 314.413 62.287C314.568 62.1323 314.751 62.055 314.964 62.055H320.271V53.645H314.964C314.751 53.645 314.568 53.5677 314.413 53.413C314.258 53.2583 314.181 53.0747 314.181 52.862V48.483C314.181 48.2703 314.258 48.0867 314.413 47.932C314.568 47.7773 314.751 47.7 314.964 47.7H333.35C333.563 47.7 333.746 47.7773 333.901 47.932C334.056 48.0867 334.133 48.2703 334.133 48.483V52.862C334.133 53.0747 334.056 53.2583 333.901 53.413C333.746 53.5677 333.563 53.645 333.35 53.645H328.101V62.055ZM351.754 47.7C353.571 47.7 355.156 48.0093 356.51 48.628C357.863 49.2467 358.897 50.0877 359.613 51.151C360.328 52.2143 360.686 53.4033 360.686 54.718C360.686 56.8833 360.009 58.5847 358.656 59.822C357.302 61.04 355.002 61.649 351.754 61.649H347.926V67.217C347.926 67.4297 347.848 67.6133 347.694 67.768C347.539 67.9227 347.355 68 347.143 68H340.908C340.695 68 340.511 67.9227 340.357 67.768C340.202 67.6133 340.125 67.4297 340.125 67.217V48.483C340.125 48.2703 340.202 48.0867 340.357 47.932C340.511 47.7773 340.695 47.7 340.908 47.7H351.754ZM351.638 56.284C352.102 56.284 352.469 56.1487 352.74 55.878C353.01 55.588 353.146 55.211 353.146 54.747C353.146 54.2637 353.01 53.8673 352.74 53.558C352.469 53.2487 352.102 53.094 351.638 53.094H347.955V56.284H351.638ZM369.258 67.014C369.007 67.6713 368.572 68 367.953 68H362.472C362.298 68 362.144 67.942 362.008 67.826C361.892 67.6907 361.834 67.536 361.834 67.362L361.863 67.188L368.185 48.657C368.263 48.4057 368.408 48.1833 368.62 47.99C368.833 47.7967 369.123 47.7 369.49 47.7H377.552C377.92 47.7 378.21 47.7967 378.422 47.99C378.635 48.1833 378.78 48.4057 378.857 48.657L385.179 67.188L385.208 67.362C385.208 67.536 385.141 67.6907 385.005 67.826C384.889 67.942 384.744 68 384.57 68H379.089C378.471 68 378.036 67.6713 377.784 67.014L377.059 64.984H369.983L369.258 67.014ZM373.521 53.297L371.462 59.329H375.58L373.521 53.297ZM408.078 47.7C408.291 47.7 408.474 47.7773 408.629 47.932C408.784 48.0867 408.861 48.2703 408.861 48.483V53.152C408.861 53.3647 408.784 53.5483 408.629 53.703C408.474 53.8577 408.291 53.935 408.078 53.935H401.843V67.217C401.843 67.4297 401.766 67.6133 401.611 67.768C401.456 67.9227 401.273 68 401.06 68H395.086C394.873 68 394.69 67.9227 394.535 67.768C394.38 67.6133 394.303 67.4297 394.303 67.217V53.935H388.068C387.855 53.935 387.672 53.8577 387.517 53.703C387.362 53.5483 387.285 53.3647 387.285 53.152V48.483C387.285 48.2703 387.362 48.0867 387.517 47.932C387.672 47.7773 387.855 47.7 388.068 47.7H408.078ZM426.656 62.055H431.905C432.117 62.055 432.301 62.1323 432.456 62.287C432.61 62.4417 432.688 62.6253 432.688 62.838V67.217C432.688 67.4297 432.61 67.6133 432.456 67.768C432.301 67.9227 432.117 68 431.905 68H413.519C413.306 68 413.122 67.9227 412.968 67.768C412.813 67.6133 412.736 67.4297 412.736 67.217V62.838C412.736 62.6253 412.813 62.4417 412.968 62.287C413.122 62.1323 413.306 62.055 413.519 62.055H418.826V53.645H413.519C413.306 53.645 413.122 53.5677 412.968 53.413C412.813 53.2583 412.736 53.0747 412.736 52.862V48.483C412.736 48.2703 412.813 48.0867 412.968 47.932C413.122 47.7773 413.306 47.7 413.519 47.7H431.905C432.117 47.7 432.301 47.7773 432.456 47.932C432.61 48.0867 432.688 48.2703 432.688 48.483V52.862C432.688 53.0747 432.61 53.2583 432.456 53.413C432.301 53.5677 432.117 53.645 431.905 53.645H426.656V62.055ZM456.427 47.7C456.64 47.7 456.824 47.7773 456.978 47.932C457.133 48.0867 457.21 48.2703 457.21 48.483V67.217C457.21 67.4297 457.133 67.6133 456.978 67.768C456.824 67.9227 456.64 68 456.427 68H451.758C451.294 68 450.908 67.797 450.598 67.391L444.276 59.329V67.217C444.276 67.4297 444.199 67.6133 444.044 67.768C443.89 67.9227 443.706 68 443.493 68H438.099C437.887 68 437.703 67.9227 437.548 67.768C437.394 67.6133 437.316 67.4297 437.316 67.217V48.483C437.316 48.2703 437.394 48.0867 437.548 47.932C437.703 47.7773 437.887 47.7 438.099 47.7H442.797C443.261 47.7 443.638 47.8933 443.928 48.28L450.25 57.009V48.483C450.25 48.2703 450.328 48.0867 450.482 47.932C450.637 47.7773 450.821 47.7 451.033 47.7H456.427ZM482.429 55.762C482.642 55.762 482.825 55.8393 482.98 55.994C483.135 56.1487 483.212 56.3323 483.212 56.545V59.619C483.212 62.5577 482.207 64.7423 480.196 66.173C478.205 67.5843 475.566 68.29 472.279 68.29C468.992 68.29 466.344 67.5843 464.333 66.173C462.342 64.7423 461.346 62.5383 461.346 59.561V56.139C461.346 54.167 461.829 52.5333 462.796 51.238C463.763 49.9233 465.068 48.9567 466.711 48.338C468.354 47.7193 470.21 47.41 472.279 47.41C474.754 47.41 476.793 47.816 478.398 48.628C480.003 49.44 481.163 50.3583 481.878 51.383C482.613 52.4077 482.98 53.239 482.98 53.877C482.98 54.051 482.912 54.2057 482.777 54.341C482.661 54.457 482.516 54.515 482.342 54.515H475.788C475.401 54.515 475.121 54.4087 474.947 54.196C474.348 53.442 473.458 53.065 472.279 53.065C471.39 53.065 470.645 53.268 470.046 53.674C469.466 54.08 469.176 54.602 469.176 55.24V60.17C469.176 60.9433 469.466 61.5523 470.046 61.997C470.626 62.4223 471.37 62.635 472.279 62.635C473.478 62.635 474.357 62.432 474.918 62.026C475.498 61.6007 475.798 61.1077 475.817 60.547H474.019C473.806 60.547 473.623 60.4697 473.468 60.315C473.313 60.1603 473.236 59.9767 473.236 59.764V56.545C473.236 56.3323 473.313 56.1487 473.468 55.994C473.623 55.8393 473.806 55.762 474.019 55.762H482.429ZM173.657 96.17C173.657 96.9627 173.918 97.5717 174.44 97.997C174.981 98.4223 175.706 98.635 176.615 98.635C177.427 98.635 178.026 98.4997 178.413 98.229C178.8 97.9583 179.128 97.5523 179.399 97.011C179.65 96.5083 179.989 96.257 180.414 96.257H186.678C186.852 96.257 186.997 96.3247 187.113 96.46C187.248 96.576 187.316 96.721 187.316 96.895C187.316 98.0743 186.92 99.2343 186.127 100.375C185.334 101.496 184.126 102.434 182.502 103.188C180.897 103.923 178.935 104.29 176.615 104.29C174.546 104.29 172.7 103.981 171.076 103.362C169.471 102.724 168.195 101.757 167.248 100.462C166.301 99.1473 165.827 97.5137 165.827 95.561V92.139C165.827 90.1863 166.301 88.5623 167.248 87.267C168.195 85.9523 169.471 84.9857 171.076 84.367C172.7 83.729 174.546 83.41 176.615 83.41C178.935 83.41 180.897 83.787 182.502 84.541C184.126 85.2757 185.334 86.2133 186.127 87.354C186.92 88.4753 187.316 89.6257 187.316 90.805C187.316 90.979 187.248 91.1337 187.113 91.269C186.997 91.385 186.852 91.443 186.678 91.443H180.414C179.989 91.443 179.65 91.1917 179.399 90.689C179.128 90.1477 178.8 89.7417 178.413 89.471C178.026 89.2003 177.427 89.065 176.615 89.065C175.706 89.065 174.981 89.2777 174.44 89.703C173.918 90.1283 173.657 90.7373 173.657 91.53V96.17ZM211.752 95.619C211.752 98.577 210.766 100.762 208.794 102.173C206.841 103.584 204.231 104.29 200.964 104.29C197.696 104.29 195.077 103.584 193.105 102.173C191.152 100.762 190.176 98.5577 190.176 95.561V92.139C190.176 90.167 190.64 88.5333 191.568 87.238C192.515 85.9233 193.801 84.9567 195.425 84.338C197.049 83.7193 198.895 83.41 200.964 83.41C203.032 83.41 204.869 83.7193 206.474 84.338C208.098 84.9567 209.383 85.9137 210.331 87.209C211.278 88.5043 211.752 90.1283 211.752 92.081V95.619ZM198.006 96.17C198.006 96.9627 198.267 97.5717 198.789 97.997C199.33 98.4223 200.055 98.635 200.964 98.635C201.872 98.635 202.588 98.4223 203.11 97.997C203.651 97.5523 203.922 96.9337 203.922 96.141V91.559C203.922 90.7663 203.651 90.1573 203.11 89.732C202.588 89.2873 201.872 89.065 200.964 89.065C200.055 89.065 199.33 89.2777 198.789 89.703C198.267 90.1283 198.006 90.7373 198.006 91.53V96.17ZM229.401 84.483C229.691 83.961 230.107 83.7 230.648 83.7H235.955C236.168 83.7 236.352 83.7773 236.506 83.932C236.661 84.0867 236.738 84.2703 236.738 84.483V103.217C236.738 103.43 236.661 103.613 236.506 103.768C236.352 103.923 236.168 104 235.955 104H230.706C230.494 104 230.31 103.923 230.155 103.768C230.001 103.613 229.923 103.43 229.923 103.217V94.227L227.806 98.403C227.748 98.5383 227.613 98.693 227.4 98.867C227.188 99.041 226.917 99.128 226.588 99.128H224.616C224.288 99.128 224.017 99.041 223.804 98.867C223.592 98.693 223.456 98.5383 223.398 98.403L221.281 94.227V103.217C221.281 103.43 221.204 103.613 221.049 103.768C220.895 103.923 220.711 104 220.498 104H215.249C215.037 104 214.853 103.923 214.698 103.768C214.544 103.613 214.466 103.43 214.466 103.217V84.483C214.466 84.2703 214.544 84.0867 214.698 83.932C214.853 83.7773 215.037 83.7 215.249 83.7H220.556C221.098 83.7 221.513 83.961 221.803 84.483L225.602 91.443L229.401 84.483ZM253.199 83.7C255.016 83.7 256.602 84.0093 257.955 84.628C259.308 85.2467 260.343 86.0877 261.058 87.151C261.773 88.2143 262.131 89.4033 262.131 90.718C262.131 92.8833 261.454 94.5847 260.101 95.822C258.748 97.04 256.447 97.649 253.199 97.649H249.371V103.217C249.371 103.43 249.294 103.613 249.139 103.768C248.984 103.923 248.801 104 248.588 104H242.353C242.14 104 241.957 103.923 241.802 103.768C241.647 103.613 241.57 103.43 241.57 103.217V84.483C241.57 84.2703 241.647 84.0867 241.802 83.932C241.957 83.7773 242.14 83.7 242.353 83.7H253.199ZM253.083 92.284C253.547 92.284 253.914 92.1487 254.185 91.878C254.456 91.588 254.591 91.211 254.591 90.747C254.591 90.2637 254.456 89.8673 254.185 89.558C253.914 89.2487 253.547 89.094 253.083 89.094H249.4V92.284H253.083ZM270.704 103.014C270.452 103.671 270.017 104 269.399 104H263.918C263.744 104 263.589 103.942 263.454 103.826C263.338 103.691 263.28 103.536 263.28 103.362L263.309 103.188L269.631 84.657C269.708 84.4057 269.853 84.1833 270.066 83.99C270.278 83.7967 270.568 83.7 270.936 83.7H278.998C279.365 83.7 279.655 83.7967 279.868 83.99C280.08 84.1833 280.225 84.4057 280.303 84.657L286.625 103.188L286.654 103.362C286.654 103.536 286.586 103.691 286.451 103.826C286.335 103.942 286.19 104 286.016 104H280.535C279.916 104 279.481 103.671 279.23 103.014L278.505 100.984H271.429L270.704 103.014ZM274.967 89.297L272.908 95.329H277.026L274.967 89.297ZM308.595 83.7C308.808 83.7 308.992 83.7773 309.146 83.932C309.301 84.0867 309.378 84.2703 309.378 84.483V103.217C309.378 103.43 309.301 103.613 309.146 103.768C308.992 103.923 308.808 104 308.595 104H303.926C303.462 104 303.076 103.797 302.766 103.391L296.444 95.329V103.217C296.444 103.43 296.367 103.613 296.212 103.768C296.058 103.923 295.874 104 295.661 104H290.267C290.055 104 289.871 103.923 289.716 103.768C289.562 103.613 289.484 103.43 289.484 103.217V84.483C289.484 84.2703 289.562 84.0867 289.716 83.932C289.871 83.7773 290.055 83.7 290.267 83.7H294.965C295.429 83.7 295.806 83.8933 296.096 84.28L302.418 93.009V84.483C302.418 84.2703 302.496 84.0867 302.65 83.932C302.805 83.7773 302.989 83.7 303.201 83.7H308.595ZM328.101 98.055H333.35C333.563 98.055 333.746 98.1323 333.901 98.287C334.056 98.4417 334.133 98.6253 334.133 98.838V103.217C334.133 103.43 334.056 103.613 333.901 103.768C333.746 103.923 333.563 104 333.35 104H314.964C314.751 104 314.568 103.923 314.413 103.768C314.258 103.613 314.181 103.43 314.181 103.217V98.838C314.181 98.6253 314.258 98.4417 314.413 98.287C314.568 98.1323 314.751 98.055 314.964 98.055H320.271V89.645H314.964C314.751 89.645 314.568 89.5677 314.413 89.413C314.258 89.2583 314.181 89.0747 314.181 88.862V84.483C314.181 84.2703 314.258 84.0867 314.413 83.932C314.568 83.7773 314.751 83.7 314.964 83.7H333.35C333.563 83.7 333.746 83.7773 333.901 83.932C334.056 84.0867 334.133 84.2703 334.133 84.483V88.862C334.133 89.0747 334.056 89.2583 333.901 89.413C333.746 89.5677 333.563 89.645 333.35 89.645H328.101V98.055ZM358.192 98.345C358.404 98.345 358.588 98.4223 358.743 98.577C358.897 98.7317 358.975 98.9153 358.975 99.128V103.217C358.975 103.43 358.897 103.613 358.743 103.768C358.588 103.923 358.404 104 358.192 104H339.864C339.651 104 339.467 103.923 339.313 103.768C339.158 103.613 339.081 103.43 339.081 103.217V84.483C339.081 84.2703 339.158 84.0867 339.313 83.932C339.467 83.7773 339.651 83.7 339.864 83.7H357.902C358.114 83.7 358.298 83.7773 358.453 83.932C358.607 84.0867 358.685 84.2703 358.685 84.483V88.572C358.685 88.7847 358.607 88.9683 358.453 89.123C358.298 89.2777 358.114 89.355 357.902 89.355H346.621V91.182H356.307C356.519 91.182 356.703 91.2593 356.858 91.414C357.012 91.5687 357.09 91.7523 357.09 91.965V95.735C357.09 95.9477 357.012 96.1313 356.858 96.286C356.703 96.4407 356.519 96.518 356.307 96.518H346.621V98.345H358.192ZM375.029 91.066C377.156 91.298 378.857 91.675 380.133 92.197C381.429 92.719 382.366 93.4053 382.946 94.256C383.526 95.1067 383.816 96.17 383.816 97.446C383.816 98.838 383.362 100.056 382.453 101.1C381.564 102.125 380.327 102.917 378.741 103.478C377.156 104.019 375.348 104.29 373.318 104.29C371.056 104.29 369.142 104.01 367.576 103.449C366.01 102.888 364.841 102.144 364.067 101.216C363.294 100.269 362.907 99.2343 362.907 98.113C362.907 97.9197 362.965 97.765 363.081 97.649C363.217 97.533 363.381 97.475 363.574 97.475H369.519C369.925 97.475 370.254 97.6007 370.505 97.852C370.834 98.1613 371.201 98.374 371.607 98.49C372.013 98.5867 372.584 98.635 373.318 98.635C375.155 98.635 376.073 98.3547 376.073 97.794C376.073 97.562 375.948 97.3687 375.696 97.214C375.464 97.04 375.039 96.895 374.42 96.779C373.821 96.6437 372.932 96.5083 371.752 96.373C369.104 96.0637 367.074 95.4063 365.662 94.401C364.251 93.3763 363.545 91.936 363.545 90.08C363.545 88.7653 363.942 87.6053 364.734 86.6C365.527 85.5947 366.648 84.8117 368.098 84.251C369.568 83.6903 371.269 83.41 373.202 83.41C375.213 83.41 376.972 83.729 378.48 84.367C379.988 84.9857 381.139 85.759 381.931 86.687C382.724 87.615 383.12 88.5237 383.12 89.413C383.12 89.6063 383.053 89.761 382.917 89.877C382.801 89.993 382.637 90.051 382.424 90.051H376.189C375.861 90.051 375.561 89.935 375.29 89.703C375.078 89.5097 374.826 89.355 374.536 89.239C374.246 89.123 373.802 89.065 373.202 89.065C371.907 89.065 371.259 89.3357 371.259 89.877C371.259 90.167 371.511 90.399 372.013 90.573C372.516 90.7277 373.521 90.892 375.029 91.066Z" fill="#0193A0"/>
<g clip-path="url(#clip1)">
<path fill-rule="evenodd" clip-rule="evenodd" d="M117.914 124.46C114.095 124.46 111 119.656 111 113.73C111 107.804 114.095 103 117.914 103C121.732 103 124.827 107.804 124.827 113.73C124.827 119.656 121.732 124.46 117.914 124.46Z" fill="#C9CACC"/>
<path fill-rule="evenodd" clip-rule="evenodd" d="M154.086 124.46C150.268 124.46 147.173 119.656 147.173 113.73C147.173 107.804 150.268 103 154.086 103C157.905 103 161 107.804 161 113.73C161 119.656 157.905 124.46 154.086 124.46Z" fill="#C9CACC"/>
<path d="M154.584 105.434H117.416V122.137H154.584V105.434Z" fill="#ACAAAE"/>
<path d="M144.186 105.434H127.814V122.027H144.186V105.434Z" fill="#907966"/>
</g>
<mask id="path-20-outside-5" maskUnits="userSpaceOnUse" x="325" y="88" width="193" height="101" fill="black">
<rect fill="white" x="325" y="88" width="193" height="101"/>
<path fill-rule="evenodd" clip-rule="evenodd" d="M460.992 95.5C460.992 97.9853 458.898 100 456.316 100C456.141 100 455.967 99.9907 455.797 99.9725V100H410.6L398.132 129H335.509C334.947 129.163 334.343 129.251 333.714 129.251C330.715 129.251 328.283 127.237 328.283 124.751C328.283 122.266 330.715 120.251 333.714 120.251C334.824 120.251 335.855 120.527 336.715 121H395.015L406.444 92.5H452.831C453.687 91.5794 454.931 91 456.316 91C458.898 91 460.992 93.0147 460.992 95.5ZM334.47 136C331.471 136 329.039 138.015 329.039 140.5C329.039 142.985 331.471 145 334.47 145C334.743 145 335.011 144.983 335.273 144.951V145H430.861L475.538 184H506.885C507.688 184.625 508.711 185 509.824 185C512.407 185 514.5 182.985 514.5 180.5C514.5 178.015 512.407 176 509.824 176C509.052 176 508.323 176.18 507.68 176.5H478.655L434.497 137H337.884C336.951 136.375 335.764 136 334.47 136ZM335.273 161.735C334.698 161.906 334.078 162 333.431 162C330.432 162 328 159.985 328 157.5C328 155.015 330.432 153 333.431 153C334.725 153 335.912 153.375 336.845 154H360.209L382.547 178.5H396.725C397.581 177.579 398.826 177 400.21 177C402.793 177 404.886 179.015 404.886 181.5C404.886 183.985 402.793 186 400.21 186C399.097 186 398.074 185.625 397.271 185H378.391L356.572 162H335.273V161.735Z"/>
</mask>
<path fill-rule="evenodd" clip-rule="evenodd" d="M460.992 95.5C460.992 97.9853 458.898 100 456.316 100C456.141 100 455.967 99.9907 455.797 99.9725V100H410.6L398.132 129H335.509C334.947 129.163 334.343 129.251 333.714 129.251C330.715 129.251 328.283 127.237 328.283 124.751C328.283 122.266 330.715 120.251 333.714 120.251C334.824 120.251 335.855 120.527 336.715 121H395.015L406.444 92.5H452.831C453.687 91.5794 454.931 91 456.316 91C458.898 91 460.992 93.0147 460.992 95.5ZM334.47 136C331.471 136 329.039 138.015 329.039 140.5C329.039 142.985 331.471 145 334.47 145C334.743 145 335.011 144.983 335.273 144.951V145H430.861L475.538 184H506.885C507.688 184.625 508.711 185 509.824 185C512.407 185 514.5 182.985 514.5 180.5C514.5 178.015 512.407 176 509.824 176C509.052 176 508.323 176.18 507.68 176.5H478.655L434.497 137H337.884C336.951 136.375 335.764 136 334.47 136ZM335.273 161.735C334.698 161.906 334.078 162 333.431 162C330.432 162 328 159.985 328 157.5C328 155.015 330.432 153 333.431 153C334.725 153 335.912 153.375 336.845 154H360.209L382.547 178.5H396.725C397.581 177.579 398.826 177 400.21 177C402.793 177 404.886 179.015 404.886 181.5C404.886 183.985 402.793 186 400.21 186C399.097 186 398.074 185.625 397.271 185H378.391L356.572 162H335.273V161.735Z" fill="#2A9EB4"/>
<path d="M455.797 99.9725L456.114 96.9894L452.797 96.6364V99.9725H455.797ZM455.797 100V103H458.797V100H455.797ZM410.6 100V97H408.625L407.844 98.8151L410.6 100ZM398.132 129V132H400.108L400.888 130.185L398.132 129ZM335.509 129V126H335.083L334.674 126.119L335.509 129ZM336.715 121L335.269 123.628L335.944 124H336.715V121ZM395.015 121V124H397.045L397.8 122.117L395.015 121ZM406.444 92.5V89.5H404.415L403.66 91.3834L406.444 92.5ZM452.831 92.5V95.5H454.138L455.028 94.543L452.831 92.5ZM335.273 144.951H338.273V141.56L334.907 141.974L335.273 144.951ZM335.273 145H332.273V148H335.273V145ZM430.861 145L432.834 142.74L431.986 142H430.861V145ZM475.538 184L473.565 186.26L474.412 187H475.538V184ZM506.885 184L508.729 181.633L507.916 181H506.885V184ZM507.68 176.5V179.5H508.385L509.017 179.186L507.68 176.5ZM478.655 176.5L476.654 178.736L477.509 179.5H478.655V176.5ZM434.497 137L436.497 134.764L435.643 134H434.497V137ZM337.884 137L336.214 139.492L336.972 140H337.884V137ZM335.273 161.735H338.273V157.708L334.415 158.86L335.273 161.735ZM336.845 154L335.174 156.492L335.932 157H336.845V154ZM360.209 154L362.426 151.979L361.533 151H360.209V154ZM382.547 178.5L380.331 180.521L381.223 181.5H382.547V178.5ZM396.725 178.5V181.5H398.032L398.922 180.543L396.725 178.5ZM397.271 185L399.115 182.633L398.302 182H397.271V185ZM378.391 185L376.215 187.065L377.102 188H378.391V185ZM356.572 162L358.749 159.935L357.862 159H356.572V162ZM335.273 162H332.273V165H335.273V162ZM456.316 103C460.446 103 463.992 99.7493 463.992 95.5H457.992C457.992 96.2213 457.351 97 456.316 97V103ZM455.479 102.956C455.755 102.985 456.034 103 456.316 103V97C456.247 97 456.179 96.9963 456.114 96.9894L455.479 102.956ZM458.797 100V99.9725H452.797V100H458.797ZM410.6 103H455.797V97H410.6V103ZM400.888 130.185L413.356 101.185L407.844 98.8151L395.376 127.815L400.888 130.185ZM335.509 132H398.132V126H335.509V132ZM333.714 132.251C334.625 132.251 335.51 132.123 336.345 131.881L334.674 126.119C334.384 126.203 334.062 126.251 333.714 126.251V132.251ZM325.283 124.751C325.283 129.397 329.611 132.251 333.714 132.251V126.251C332.875 126.251 332.204 125.968 331.788 125.623C331.379 125.284 331.283 124.962 331.283 124.751H325.283ZM333.714 117.251C329.611 117.251 325.283 120.106 325.283 124.751H331.283C331.283 124.541 331.379 124.219 331.788 123.88C332.204 123.535 332.875 123.251 333.714 123.251V117.251ZM338.161 118.372C336.848 117.649 335.318 117.251 333.714 117.251V123.251C334.33 123.251 334.862 123.405 335.269 123.628L338.161 118.372ZM395.015 118H336.715V124H395.015V118ZM403.66 91.3834L392.231 119.883L397.8 122.117L409.229 93.6166L403.66 91.3834ZM452.831 89.5H406.444V95.5H452.831V89.5ZM456.316 88C454.083 88 452.048 88.937 450.634 90.457L455.028 94.543C455.327 94.2217 455.78 94 456.316 94V88ZM463.992 95.5C463.992 91.2507 460.446 88 456.316 88V94C457.351 94 457.992 94.7787 457.992 95.5H463.992ZM332.039 140.5C332.039 140.29 332.134 139.967 332.544 139.628C332.96 139.283 333.631 139 334.47 139V133C330.367 133 326.039 135.855 326.039 140.5H332.039ZM334.47 142C333.631 142 332.96 141.717 332.544 141.372C332.134 141.033 332.039 140.71 332.039 140.5H326.039C326.039 145.145 330.367 148 334.47 148V142ZM334.907 141.974C334.767 141.991 334.621 142 334.47 142V148C334.865 148 335.255 147.976 335.639 147.929L334.907 141.974ZM332.273 144.951V145H338.273V144.951H332.273ZM335.273 148H430.861V142H335.273V148ZM428.888 147.26L473.565 186.26L477.51 181.74L432.834 142.74L428.888 147.26ZM475.538 187H506.885V181H475.538V187ZM505.042 186.367C506.361 187.394 508.03 188 509.824 188V182C509.392 182 509.015 181.856 508.729 181.633L505.042 186.367ZM509.824 188C513.954 188 517.5 184.749 517.5 180.5H511.5C511.5 181.221 510.859 182 509.824 182V188ZM517.5 180.5C517.5 176.251 513.954 173 509.824 173V179C510.859 179 511.5 179.779 511.5 180.5H517.5ZM509.824 173C508.581 173 507.395 173.291 506.344 173.814L509.017 179.186C509.25 179.07 509.522 179 509.824 179V173ZM507.68 173.5H478.655V179.5H507.68V173.5ZM480.655 174.264L436.497 134.764L432.497 139.236L476.654 178.736L480.655 174.264ZM434.497 134H337.884V140H434.497V134ZM334.47 139C335.19 139 335.792 139.209 336.214 139.492L339.555 134.508C338.111 133.54 336.337 133 334.47 133V139ZM333.431 165C334.367 165 335.277 164.865 336.132 164.609L334.415 158.86C334.119 158.948 333.788 159 333.431 159V165ZM325 157.5C325 162.145 329.328 165 333.431 165V159C332.592 159 331.921 158.717 331.505 158.372C331.095 158.033 331 157.71 331 157.5H325ZM333.431 150C329.328 150 325 152.855 325 157.5H331C331 157.29 331.095 156.967 331.505 156.628C331.921 156.283 332.592 156 333.431 156V150ZM338.516 151.508C337.071 150.54 335.298 150 333.431 150V156C334.151 156 334.753 156.209 335.174 156.492L338.516 151.508ZM336.845 157H360.209V151H336.845V157ZM357.992 156.021L380.331 180.521L384.764 176.479L362.426 151.979L357.992 156.021ZM382.547 181.5H396.725V175.5H382.547V181.5ZM398.922 180.543C399.221 180.222 399.674 180 400.21 180V174C397.977 174 395.942 174.937 394.528 176.457L398.922 180.543ZM400.21 180C401.245 180 401.886 180.779 401.886 181.5H407.886C407.886 177.251 404.34 174 400.21 174V180ZM401.886 181.5C401.886 182.221 401.245 183 400.21 183V189C404.34 189 407.886 185.749 407.886 181.5H401.886ZM400.21 183C399.778 183 399.401 182.856 399.115 182.633L395.428 187.367C396.747 188.394 398.416 189 400.21 189V183ZM397.271 182H378.391V188H397.271V182ZM380.568 182.935L358.749 159.935L354.396 164.065L376.215 187.065L380.568 182.935ZM356.572 159H335.273V165H356.572V159ZM338.273 162V161.735H332.273V162H338.273Z" fill="#0193A0" mask="url(#path-20-outside-5)"/>
<rect x="314" y="120" width="20" height="8" fill="#C4C4C4"/>
<rect x="266" y="145" width="20" height="8" fill="#C4C4C4"/>
<rect x="266" y="129" width="20" height="8" fill="#C4C4C4"/>
<rect x="314" y="137" width="20" height="8" fill="#C9CACC"/>
<rect x="314" y="154" width="20" height="8" fill="#C4C4C4"/>
<rect x="279" y="114" width="44" height="55" fill="#343433"/>
<circle cx="78.5" cy="81.5" r="6" fill="black" stroke="#0193A0" stroke-width="3"/>
<circle cx="139.5" cy="7.5" r="6" fill="black" stroke="#0193A0" stroke-width="3"/>
<circle cx="118.5" cy="7.5" r="6" fill="black" stroke="#0193A0" stroke-width="3"/>
<circle cx="98.5" cy="84.5" r="6" fill="black" stroke="#0193A0" stroke-width="3"/>
<circle cx="457.5" cy="95.5" r="6" fill="black" stroke="#0193A0" stroke-width="3"/>
<circle cx="509.5" cy="179.5" r="6" fill="black" stroke="#0193A0" stroke-width="3"/>
<circle cx="403.5" cy="180.5" r="6" fill="black" stroke="#0193A0" stroke-width="3"/>
<defs>
<clipPath id="clip0">
<rect width="50" height="21.4602" fill="white" transform="translate(111 159)"/>
</clipPath>
<clipPath id="clip1">
<rect width="50" height="21.4602" fill="white" transform="translate(111 103)"/>
</clipPath>
</defs>
</svg>
